SplineFontDB: 3.0
FontName: Abc-Mono
FullName: Abc Mono
FamilyName: Abc-Mono
Weight: Medium
Copyright: Created by Elise Duverdier, 2016, with FontForge 2.0 (http://fontforge.sf.net)
UComments: "2016-4-2: Created." 
Version: 001.000
ItalicAngle: 0
UnderlinePosition: -102
UnderlineWidth: 51
Ascent: 819
Descent: 205
LayerCount: 2
Layer: 0 0 "Back"  1
Layer: 1 0 "Fore"  0
XUID: [1021 552 1961940206 5428288]
FSType: 0
OS2Version: 0
OS2_WeightWidthSlopeOnly: 0
OS2_UseTypoMetrics: 1
CreationTime: 1459623653
ModificationTime: 1460495865
OS2TypoAscent: 0
OS2TypoAOffset: 1
OS2TypoDescent: 0
OS2TypoDOffset: 1
OS2TypoLinegap: 92
OS2WinAscent: 0
OS2WinAOffset: 1
OS2WinDescent: 0
OS2WinDOffset: 1
HheadAscent: 0
HheadAOffset: 1
HheadDescent: 0
HheadDOffset: 1
OS2Vendor: 'PfEd'
MarkAttachClasses: 1
DEI: 91125
Encoding: UnicodeFull
Compacted: 1
UnicodeInterp: none
NameList: Adobe Glyph List
DisplaySize: -48
AntiAlias: 1
FitToEm: 1
WinInfo: 0 18 14
BeginPrivate: 0
EndPrivate
Grid
-1024 -135 m 0
 2048 -135 l 0
  Named: "desc" 
-1024 587.1 m 0
 2048 587.1 l 0
  Named: "asc" 
-1024 539.1 m 0
 2048 539.1 l 0
  Named: "cap" 
-1024 424.867 m 0
 2048 424.867 l 0
  Named: "x" 
EndSplineSet
BeginChars: 1114112 186

StartChar: A
Encoding: 65 65 0
Width: 540
VWidth: -12564
Flags: HW
LayerCount: 2
Fore
SplineSet
223.81 538.847 m 1
 287.847 540.154 l 1
 496.248 -0 l 1
 423.226 0 l 1
 387.034 87 l 1
 128.083 87 l 1
 92.9561 0 l 1
 22 0 l 1
 223.81 538.847 l 1
365.487 140 m 1
 255.966 435.475 l 1
 147.382 140 l 1
 365.487 140 l 1
EndSplineSet
EndChar

StartChar: B
Encoding: 66 66 1
Width: 540
VWidth: -12554
Flags: HW
LayerCount: 2
Fore
SplineSet
359.994 400.238 m 1
 358.683 452.962 321.755 485.947 253.892 490 c 1
 213.394 489.898 140.908 483.334 112 480.09 c 1
 112 58 l 1
 285.065 58 l 2
 335.585 58.8174 371.116 105.878 376.987 151.406 c 1
 375.611 199.123 327.783 234.688 267.187 242 c 1
 123 242 l 1
 123 311 l 1
 267.884 311 l 2
 326.488 311.905 355.971 343.912 359.994 400.238 c 1
51.8955 533.938 m 2
 114.894 540.938 180.121 547.99 254.22 549.001 c 1
 346.728 547.979 425.8 490.394 428.995 395.798 c 2
 429.004 395.535 l 1
 428.998 395.272 l 2
 428.03 352.3 409.481 305.391 371.667 275.383 c 1
 414.383 248.089 446 215.43 446 150.306 c 0
 447.062 73.4658 381.755 -11 285.172 -11 c 2
 43 -11 l 1
 43 532.95 l 1
 51.8955 533.938 l 2
EndSplineSet
EndChar

StartChar: Z
Encoding: 90 90 2
Width: 540
VWidth: -12564
Flags: HW
LayerCount: 2
Fore
SplineSet
55.6191 473.362 m 1
 55.6191 540.027 l 1
 473.154 538.953 l 1
 161.425 64.7324 l 1
 436.619 66.6045 l 1
 436.619 0 l 1
 37 0 l 1
 351.888 476.177 l 1
 55.6191 473.362 l 1
EndSplineSet
EndChar

StartChar: E
Encoding: 69 69 3
Width: 540
VWidth: -12564
Flags: HW
LayerCount: 2
Fore
SplineSet
408 539 m 0
 418 529 l 1
 418 471 l 1
 126 471 l 1
 126 293 l 1
 380 293 l 1
 380 224 l 1
 126 224 l 1
 126 70 l 1
 418 70 l 1
 418 1 l 1
 57 1 l 1
 57 539 l 1
 408 539 l 0
EndSplineSet
EndChar

StartChar: R
Encoding: 82 82 4
Width: 540
VWidth: -12564
Flags: HW
LayerCount: 2
Fore
SplineSet
51 3 m 1
 51 542 l 1
 222.403 542 l 1
 321.569 539.989 405.055 497.043 403.999 380.802 c 0
 403.045 289.665 344.031 246.425 251.576 236.447 c 1
 294.49 209.442 315.592 173.532 332.341 148.91 c 1
 366.414 99.6055 385.725 75.2793 423.436 61.9688 c 0
 430 59.6523 l 1
 430 -4.17285 l 1
 418.896 -2.93848 l 0
 349.834 4.47949 306.126 68.5996 268.95 114.419 c 0
 230.791 161.449 205.02 201.868 129.243 229.735 c 0
 123 232.182 l 1
 123 288 l 1
 133 288 l 0
 248.862 288 328.142 286.45 334.995 380.256 c 1
 333.712 438.425 298.392 470.36 222.011 473 c 1
 120 473 l 1
 120 3 l 1
 51 3 l 1
EndSplineSet
EndChar

StartChar: T
Encoding: 84 84 5
Width: 540
VWidth: -12564
Flags: HW
LayerCount: 2
Fore
SplineSet
47 471 m 1
 47 539 l 1
 438 539 l 1
 438 471 l 1
 274.392 471 l 1
 280 0 l 1
 211 0 l 1
 194.373 471 l 1
 47 471 l 1
EndSplineSet
EndChar

StartChar: Y
Encoding: 89 89 6
Width: 540
VWidth: -12564
Flags: HW
LayerCount: 2
Fore
SplineSet
112.411 538 m 1
 254.345 290.1 l 1
 394.132 538 l 1
 469.473 538 l 1
 292.497 205.64 l 1
 292.497 2 l 1
 214.1 2 l 1
 214.1 210.606 l 1
 37 538 l 1
 112.411 538 l 1
EndSplineSet
EndChar

StartChar: U
Encoding: 85 85 7
Width: 540
VWidth: -12564
Flags: HW
LayerCount: 2
Fore
SplineSet
51 159.093 m 0
 51 541 l 1
 120 541 l 1
 120 158.801 l 0
 120 104.145 165.902 62.748 245.568 61.7998 c 0
 313.596 60.8818 361 111.499 361 158.801 c 0
 361 541 l 1
 430 541 l 1
 430 159.093 l 0
 430 83.3428 357.53 -1 245.407 -1 c 0
 136.766 -1 51 53.3818 51 159.093 c 0
EndSplineSet
EndChar

StartChar: I
Encoding: 73 73 8
Width: 520
VWidth: -12564
Flags: W
HStem: -1 67<96 171 240 319> 474 66<96 171 240 319>
VStem: 96 223<-1 66 474 540> 171 69<66 474>
LayerCount: 2
Fore
SplineSet
96 474 m 1xe0
 96 540 l 1
 319 540 l 1
 319 474 l 1xe0
 240 474 l 1
 240 66 l 1xd0
 319 66 l 1
 319 -1 l 1
 96 -1 l 1
 96 66 l 1xe0
 171 66 l 1
 171 474 l 1xd0
 96 474 l 1xe0
EndSplineSet
EndChar

StartChar: O
Encoding: 79 79 9
Width: 540
VWidth: -12564
Flags: W
HStem: -3 70<180.772 323.229> 473 69<180.78 323.219>
VStem: 27 65<166.261 373.654> 412 65<166.261 373.653>
LayerCount: 2
Fore
SplineSet
27 269.982 m 0
 27 415.612 118.02 542 252 542 c 0
 385.979 542 477 415.61 477 269.982 c 0
 477 124.388 386.029 -3 252 -3 c 0
 117.972 -3 27 124.389 27 269.982 c 0
412 270 m 0
 412 387.379 338.282 473 252 473 c 0
 165.718 473 92 387.379 92 270 c 0
 92 152.621 165.718 67 252 67 c 0
 338.282 67 412 152.621 412 270 c 0
EndSplineSet
EndChar

StartChar: P
Encoding: 80 80 10
Width: 540
VWidth: -12564
Flags: HW
LayerCount: 2
Fore
SplineSet
129 470 m 1
 129 292 l 1
 235.884 292 l 1
 294.656 292.871 344.895 326.727 344.001 380.856 c 0
 343.084 438.24 309.519 467.333 233.284 470 c 1
 129 470 l 1
236 222 m 0
 129 222 l 1
 129 1 l 1
 59 1 l 1
 59 539 l 1
 233.693 539 l 1
 331.457 536.958 413 479.255 413 380.984 c 0
 413 292.331 342.354 222 236 222 c 0
EndSplineSet
EndChar

StartChar: Q
Encoding: 81 81 11
Width: 540
VWidth: -12528
Flags: HW
LayerCount: 2
Fore
SplineSet
15 298.469 m 0
 15 447.139 104.792 577 237.177 577 c 0
 372.485 577 464 446.988 464 298.021 c 0
 464 207.759 430.253 126.621 377.273 75.2891 c 1
 391.794 62.4121 404.428 51.2715 416.984 41.3418 c 1
 435.016 29.5234 453.646 22.0439 489.475 23.8711 c 0
 499.363 24.375 l 1
 503.617 -41.5576 l 1
 493.425 -41.9912 l 0
 444.317 -44.0811 405.126 -30.4355 376.069 -11.3203 c 0
 353.186 2.21777 335.341 22.6699 317.93 38.1865 c 1
 291.691 27.166 266.156 20.9043 237.177 20.9043 c 0
 104.841 20.9043 15 149.767 15 298.469 c 0
399 289 m 0
 399 414.358 321.761 507 237.177 507 c 0
 152.592 507 79 414.36 79 289 c 0
 79 214.77 104.984 151.148 142.035 113.395 c 1
 181.755 124.94 225.552 132.929 271.072 124.778 c 1
 289.371 120.827 305.727 112.797 320.624 103.555 c 1
 367.699 140.688 399 208.082 399 289 c 0
196.673 87.7617 m 0
 206.783 89.8232 217.168 90.9189 224.67 91 c 0
 239.367 92.0654 249.347 91.0156 259.436 88.7012 c 0
 259.842 88.6084 l 1
 260.239 88.4873 l 0
 264.299 87.2451 266.478 86.2451 268.957 85.4873 c 0
 304.458 74.627 l 1
 268.154 66.2988 l 0
 259.23 64.251 248.584 62 237.177 62 c 0
 222.895 62 208.593 64.1709 195.313 68.6025 c 0
 160.19 80.3223 l 1
 196.673 87.7617 l 0
EndSplineSet
EndChar

StartChar: S
Encoding: 83 83 12
Width: 540
VWidth: -12559
Flags: HW
LayerCount: 2
Fore
SplineSet
76.1104 384.775 m 1
 77.1729 482.662 159.436 546 263.35 546 c 1
 345.772 543.93 386.127 517.767 405.249 502.894 c 0
 412.025 497.623 l 1
 378.812 438.116 l 1
 369.965 443.425 l 0
 343.23 459.466 320.928 481.865 269.445 480 c 1
 202.658 480 152.511 445.476 145.054 381.007 c 1
 139.772 331.118 170.523 301.218 257.64 298.448 c 0
 443.458 291.763 257.991 298.438 257.991 298.438 c 1
 258.342 298.41 l 0
 358.69 289.615 421.109 264.802 421.109 150.53 c 0
 421.109 47.8154 330.005 -7 230.465 -7 c 1
 167.842 -4.91992 116.535 9.27246 62.7217 68.2607 c 0
 57 74.5322 l 1
 99.1309 127.898 l 1
 107.08 120.17 l 0
 143.594 84.6709 165.95 59.0645 231.802 60 c 1
 304.68 60 352.109 106.09 352.109 145.482 c 0
 352.109 206.312 340.441 233.146 258.733 236.749 c 1
 156.225 244.535 73.9795 270.131 76.1104 384.775 c 1
EndSplineSet
EndChar

StartChar: D
Encoding: 68 68 13
Width: 539
VWidth: -12564
Flags: HW
LayerCount: 2
Fore
SplineSet
120 470 m 1
 120 70 l 1
 224.504 70 l 1
 332.227 71.7129 359.99 183.535 360.999 273.804 c 1
 359.988 356.604 343.452 458.914 221.671 470 c 1
 120 470 l 1
430 273.753 m 0
 429.002 166.138 392.117 0 224.615 0 c 0
 51 0 l 1
 51 538.81 l 1
 60.8076 538.998 l 2
 113.08 540.003 163.093 539 222.302 539 c 1
 377.183 537.971 431.009 397.302 430 273.753 c 0
EndSplineSet
EndChar

StartChar: F
Encoding: 70 70 14
Width: 540
VWidth: -12564
Flags: HW
LayerCount: 2
Fore
SplineSet
58 1 m 1
 58 539 l 1
 416 539 l 1
 416 470 l 1
 127 470 l 1
 127 293 l 1
 381 293 l 1
 381 224 l 1
 127 224 l 1
 127 1 l 1
 58 1 l 1
EndSplineSet
EndChar

StartChar: V
Encoding: 86 86 15
Width: 540
VWidth: -12564
Flags: HW
LayerCount: 2
Fore
SplineSet
58 1 m 1
 58 539 l 1
 416 539 l 1
 416 470 l 1
 127 470 l 1
 127 293 l 1
 381 293 l 1
 381 224 l 1
 127 224 l 1
 127 1 l 1
 58 1 l 1
EndSplineSet
EndChar

StartChar: G
Encoding: 71 71 16
Width: 540
VWidth: -12559
Flags: HW
LayerCount: 2
Fore
SplineSet
32 267.128 m 1
 33.0156 384.776 98.4092 543.982 275.738 545 c 0
 349.776 545 395.344 518.735 422.931 492.208 c 0
 451.335 464.896 459.984 441.052 462.258 435.217 c 1
 465.085 427.964 l 1
 400.133 405.371 l 1
 396.663 414.42 l 0
 396.663 414.42 392.041 427.816 374.929 444.929 c 0
 358.771 461.087 330.117 477 275.88 477 c 1
 163.941 475.248 103.941 364.261 101 266.978 c 1
 101 146.674 183.406 62 280.172 62 c 1
 355.689 62.8896 374.618 75.7666 398 105.98 c 1
 398 199 l 1
 276.895 199 l 1
 276.895 267 l 1
 467 267 l 1
 467 92.6309 l 1
 465.588 90.3477 l 0
 430.325 33.3193 381.456 -4.99902 280.311 -6 c 1
 132.759 -6 32 118.683 32 267.128 c 1
EndSplineSet
EndChar

StartChar: H
Encoding: 72 72 17
Width: 540
VWidth: -12564
Flags: HW
LayerCount: 2
Fore
SplineSet
64 1 m 1
 64 539 l 1
 133 539 l 1
 133 312 l 1
 334 312 l 1
 334 539 l 1
 403 539 l 1
 403 1 l 1
 334 1 l 1
 334 242 l 1
 133 242 l 1
 133 1 l 1
 64 1 l 1
EndSplineSet
EndChar

StartChar: J
Encoding: 74 74 18
Width: 540
VWidth: -12564
Flags: HW
LayerCount: 2
Fore
SplineSet
263.515 473 m 1
 263.515 543 l 1
 418 543 l 1
 418 188.968 l 0
 418 128.31 408.021 80.501 379.854 46.0156 c 0
 351.424 11.2051 307.873 -3 251.415 -3 c 0
 189.383 -3 139.65 8.20703 105.929 41.9287 c 0
 72.2803 75.5771 57 126.638 57 193 c 0
 57 203 l 1
 126 203 l 1
 126 193 l 0
 126 137.349 138.727 107.415 155.071 91.0713 c 0
 171.387 74.7559 200.829 66 251.415 66 c 0
 295.802 66 313.518 73.0127 326 88.876 c 0
 338.939 105.319 349 136.514 349 189.911 c 0
 349 473 l 1
 263.515 473 l 1
EndSplineSet
EndChar

StartChar: K
Encoding: 75 75 19
Width: 540
VWidth: -12554
Flags: HW
LayerCount: 2
Fore
SplineSet
107 294.356 m 1
 358.171 555.14 l 1
 410.084 510.404 l 1
 219.659 313.239 l 1
 328.959 255.775 369.128 117.676 451.864 42.2285 c 0
 458.223 36.4307 l 1
 419.157 -16.1416 l 1
 410.985 -9.98926 l 0
 316.514 59.8887 286.516 215.239 165.63 269.806 c 1
 107 210.172 l 1
 107 2 l 1
 38 2 l 1
 38 541 l 1
 107 541 l 1
 107 294.356 l 1
EndSplineSet
EndChar

StartChar: L
Encoding: 76 76 20
Width: 520
VWidth: -12564
Flags: HW
LayerCount: 2
Fore
SplineSet
68 1 m 1
 68 539 l 1
 137 539 l 1
 137 70 l 1
 376 70 l 1
 376 1 l 1
 68 1 l 1
EndSplineSet
EndChar

StartChar: M
Encoding: 77 77 21
Width: 540
VWidth: -12564
Flags: HW
LayerCount: 2
Fore
SplineSet
64.1895 539 m 1
 133.068 539 l 1
 251.688 197.304 l 1
 371.315 539 l 1
 437.018 539 l 1
 471.244 1 l 1
 402.24 1 l 1
 377.25 360.905 l 1
 251.806 14.2041 l 1
 122.183 361.26 l 1
 100.056 1 l 1
 31 1 l 1
 64.1895 539 l 1
EndSplineSet
EndChar

StartChar: W
Encoding: 87 87 22
Width: 540
VWidth: -12564
Flags: HW
LayerCount: 2
Fore
SplineSet
380.751 142.195 m 1
 453.652 539 l 1
 521.986 539 l 1
 419.312 -0 l 1
 357.53 0 l 1
 263.98 279.846 l 1
 171.458 0 l 1
 108.637 0 l 1
 7 539 l 1
 75.3193 539 l 1
 148.303 139.898 l 1
 266.397 502.799 l 1
 276.938 469.737 l 0
 311.744 360.564 348.237 249.737 380.751 142.195 c 1
EndSplineSet
EndChar

StartChar: X
Encoding: 88 88 23
Width: 540
VWidth: -12564
Flags: HW
LayerCount: 2
Fore
SplineSet
38 540 m 1
 111.152 540 l 1
 251.39 316.624 l 1
 395.753 540 l 1
 470.05 540 l 1
 296.006 270.885 l 1
 465.761 0 l 1
 389.601 0 l 1
 255.436 218.097 l 1
 116.11 0 l 1
 39.7139 0 l 1
 211.783 264.293 l 1
 38 540 l 1
EndSplineSet
EndChar

StartChar: C
Encoding: 67 67 24
Width: 540
VWidth: -12564
Flags: W
HStem: -3 66<174.284 340.628> 476 67<185.913 322.092>
VStem: 43 70<136.446 384.719>
LayerCount: 2
Fore
SplineSet
98.6543 460.529 m 0
 133 510.729 186.43 543 251.673 543 c 0
 380.879 543 434.847 430.673 434.985 430.389 c 2
 439.497 421.15 l 1
 377.474 392.958 l 1
 373.102 401.438 l 2
 371.698 404.126 332.604 476 251.673 476 c 0
 218.486 476 184.247 461.158 156.288 424.881 c 0
 130.782 388.84 113 331.531 113 257.577 c 0
 113 183.599 130.785 133.242 153.971 104.051 c 0
 178.748 74.8711 211.398 63 250.531 63 c 0
 331.506 63 393.299 118.423 393.299 118.423 c 1
 400.146 124.605 l 1
 449.523 78.0508 l 1
 441.911 70.7725 l 2
 441.4 70.2842 365.584 -3 250.531 -3 c 0
 188.959 -3 134.009 19.5723 98.0869 64.416 c 0
 62.2764 109.122 43 173.157 43 257.459 c 0
 43 341.976 64.3926 410.453 98.6543 460.529 c 0
EndSplineSet
EndChar

StartChar: N
Encoding: 78 78 25
Width: 540
VWidth: -12564
Flags: HW
LayerCount: 2
Fore
SplineSet
51 539 m 1
 118.981 539 l 1
 362.702 122.269 l 1
 359.655 539 l 1
 429 539 l 1
 429 0 l 1
 363.031 0 l 1
 119.09 415.227 l 1
 120.022 0 l 1
 51 0 l 1
 51 539 l 1
EndSplineSet
EndChar

StartChar: exclam
Encoding: 33 33 27
Width: 500
VWidth: -10810
Flags: HW
LayerCount: 2
Fore
SplineSet
214.919 549.1 m 1
 276.919 549.1 l 5
 276.919 177.138 l 5
 214.919 177.138 l 1
 214.919 549.1 l 1
245.481 130.061 m 0
 286.28 130.061 319.794 96.5452 319.794 55.748 c 0
 319.794 14.9503 286.279 -18.5644 245.481 -18.5644 c 0
 204.683 -18.5644 171.169 14.9508 171.169 55.748 c 0
 171.169 96.5456 204.684 130.061 245.481 130.061 c 0
EndSplineSet
EndChar

StartChar: quotedbl
Encoding: 34 34 28
Width: 500
VWidth: -10974
Flags: W
LayerCount: 2
Fore
SplineSet
278 548.625 m 1
 340 548.625 l 1
 340 372 l 1
 278 372 l 1
 278 548.625 l 1
159.588 548.625 m 1
 221.588 548.625 l 1
 221.588 372 l 1
 159.588 372 l 1
 159.588 548.625 l 1
EndSplineSet
Validated: 1
EndChar

StartChar: numbersign
Encoding: 35 35 29
Width: 500
VWidth: -10852
Flags: W
LayerCount: 2
Fore
SplineSet
128.326 432.554 m 1
 189.156 422.2 l 1
 171.086 314.641 l 1
 240.503 314.641 l 1
 260.448 432.537 l 1
 321.721 422.217 l 1
 303.648 314.641 l 1
 337.266 314.641 l 1
 337.266 252.641 l 1
 293.283 252.641 l 1
 278.281 163.703 l 1
 311.891 163.703 l 1
 311.891 101.703 l 1
 267.886 101.703 l 1
 248.811 -9.6438 l 1
 188.021 0.703465 l 1
 204.782 101.703 l 1
 135.357 101.703 l 1
 116.727 -9.63307 l 1
 55.414 0.693201 l 1
 72.6071 101.703 l 1
 38.5781 101.703 l 1
 38.5781 163.703 l 1
 82.9986 163.703 l 1
 98 252.641 l 1
 63.9531 252.641 l 1
 63.9531 314.641 l 1
 108.378 314.641 l 1
 128.326 432.554 l 1
160.721 252.641 m 1
 145.719 163.703 l 1
 215.123 163.703 l 1
 230.125 252.641 l 1
 160.721 252.641 l 1
EndSplineSet
Validated: 1
EndChar

StartChar: dollar
Encoding: 36 36 30
Width: 520
VWidth: -10813
Flags: W
HStem: -6.03809 60.1406<302.056 342.81> 383.749 59.4971<190.489 240.056 302.056 402.143>
VStem: 114.056 62.8682<275.874 370.255> 240.056 62<-33.2998 -4.03643 54.1025 185.89 260.375 383.749 443.575 470.7> 366.056 62<76.6761 169.978>
LayerCount: 2
Fore
SplineSet
240.056 443.246 m 1
 240.056 470.7 l 1
 302.056 470.7 l 1
 302.056 443.575 l 1
 348.23 441.708 401.843 431.561 401.843 431.561 c 1
 412.424 429.634 l 1
 402.315 364.351 l 1
 391.294 367.47 l 0
 391.294 367.47 340.356 381.513 302.056 383.831 c 1
 302.056 250.912 l 1
 240.056 260.375 l 1
 240.056 383.749 l 1
 206.242 380.897 178.655 366.226 176.924 323.306 c 0
 175.08 277.38 209.915 257.663 278.962 251.619 c 0
 365.723 244.032 428.056 210.033 428.056 122.773 c 0
 428.056 52.9219 372.528 -0.90332 302.056 -6.03809 c 1
 302.056 -33.2998 l 1
 240.056 -33.2998 l 1
 240.056 -6.07715 l 1
 187.98 -2.80762 115.119 18.8535 115.119 34.6045 c 0
 115.119 35.3721 l 1
 124.701 92.7598 l 1
 136.771 87.2041 l 0
 136.771 87.2041 200.391 58.6367 240.056 53.8877 c 1
 240.056 192.042 l 1
 302.056 185.89 l 1
 302.056 54.1025 l 1
 335.772 59.8438 366.056 91.7324 366.056 122.773 c 0
 366.056 168.942 332.438 186.001 263.15 192.065 c 0
 176.157 199.673 114.056 235.703 114.056 322.835 c 0
 114.056 393.232 162.302 437.434 240.056 443.246 c 1
EndSplineSet
EndChar

StartChar: percent
Encoding: 37 37 31
Width: 540
VWidth: -10858
Flags: HW
LayerCount: 2
Fore
SplineSet
53.8057 325.138 m 0
 53.8057 373.693 96.6289 413.7 147.806 413.7 c 0
 202.073 413.7 250.165 373.627 250.165 325.138 c 0
 250.165 276.648 202.073 236.575 147.806 236.575 c 0
 96.6289 236.575 53.8057 276.583 53.8057 325.138 c 0
361.373 398.538 m 1
 370.439 411.49 l 1
 422.017 378.331 l 1
 412.988 365.433 l 1
 142.386 10.8096 l 1
 90.8086 43.9688 l 1
 361.373 398.538 l 1
178.242 325.138 m 0
 178.242 339.936 165.192 350.825 147.806 350.825 c 0
 130.283 350.825 117.118 339.79 117.118 325.138 c 0
 117.118 310.473 130.314 299.45 147.806 299.45 c 0
 165.223 299.45 178.242 310.371 178.242 325.138 c 0
270.258 95.3877 m 0
 270.258 143.943 318.907 183.95 373.056 183.95 c 0
 424.283 183.95 466.618 143.877 466.618 95.3877 c 0
 466.618 46.8984 424.283 6.8252 373.056 6.8252 c 0
 318.906 6.8252 270.258 46.832 270.258 95.3877 c 0
403.306 95.3877 m 0
 403.306 110.186 390.442 121.075 373.056 121.075 c 0
 355.533 121.075 342.182 110.04 342.182 95.3877 c 0
 342.182 80.7227 355.563 69.7002 373.056 69.7002 c 0
 390.473 69.7002 403.306 80.6201 403.306 95.3877 c 0
EndSplineSet
EndChar

StartChar: ampersand
Encoding: 38 38 32
Width: 500
VWidth: -10810
Flags: HW
LayerCount: 2
Fore
SplineSet
431.272 24.5195 m 0
 387.654 -20.0577 l 1
 376.945 -8.91637 367.148 1.19838 337.551 32.4828 c 1
 283.585 -30.7184 176.891 -33.0757 112.354 50.0019 c 0
 52.3687 127.198 75.5145 198.509 124.824 267.703 c 1
 100.448 300.622 85.6509 341.876 89.2806 388.107 c 4
 101.76 547.28 271.272 539.1 351.027 452.015 c 5
 310.632 405.105 l 1
 280.696 428.293 254.219 450.594 219.399 453.401 c 0
 183.499 456.305 155.322 420.746 150.552 380.357 c 0
 143.464 320.241 258.4 204.149 320.231 141.399 c 1
 325.261 160.28 328.928 179.697 332.139 199.7 c 1
 293.125 199.7 l 1
 293.125 261.7 l 1
 426 261.7 l 1
 426 199.7 l 1
 394.716 199.7 l 1
 390.017 161.915 381.701 124.969 368.947 90.3739 c 1
 391.393 66.5345 421.569 34.8672 431.272 24.5195 c 0
164.925 220.296 m 1
 128.837 171.588 119.061 127.043 157.01 84.6855 c 0
 192.895 44.6312 259.303 20.3614 294.381 78.6401 c 1
 252.566 123.282 207.988 171.681 164.925 220.296 c 1
EndSplineSet
EndChar

StartChar: quotesingle
Encoding: 39 39 33
Width: 500
VWidth: -10974
Flags: W
LayerCount: 2
Fore
SplineSet
219 549.101 m 1
 281 549.101 l 1
 281 372.476 l 1
 219 372.476 l 1
 219 549.101 l 1
EndSplineSet
Validated: 1
EndChar

StartChar: parenleft
Encoding: 40 40 34
Width: 500
VWidth: -10748
Flags: W
LayerCount: 2
Fore
SplineSet
265.675 599.336 m 1
 306.855 553.008 l 1
 301.528 546.415 l 0
 243.85 475.027 217.092 366.372 210.982 265.098 c 1
 210.183 265.146 214.349 76.3305 300.657 -18.0138 c 0
 301.335 -18.7486 303.312 -23.7998 303.312 -24.7998 c 0
 303.312 -29.1604 l 1
 262.071 -67.4564 l 1
 255.268 -59.9412 l 1
 253.783 -58.3008 149 58.0467 149 265.744 c 1
 149.891 367.276 181.094 502.272 258.211 590.77 c 0
 265.675 599.336 l 1
EndSplineSet
Validated: 1
EndChar

StartChar: parenright
Encoding: 41 41 35
Width: 500
VWidth: -10748
Flags: W
VStem: 152.543 154.312<-24.7998 265.744>
LayerCount: 2
Fore
SplineSet
190.18 599.336 m 1
 149 553.009 l 1
 154.327 546.415 l 0
 212.005 475.027 238.763 366.372 244.873 265.098 c 1
 245.672 265.146 241.507 76.3301 155.198 -18.0137 c 0
 154.52 -18.749 152.543 -23.7998 152.543 -24.7998 c 0
 152.543 -29.1602 l 1
 193.784 -67.4561 l 1
 200.588 -59.9414 l 1
 202.072 -58.3008 306.855 58.0469 306.855 265.744 c 1
 305.965 367.276 274.761 502.272 197.645 590.77 c 0
 190.18 599.336 l 1
EndSplineSet
EndChar

StartChar: asterisk
Encoding: 42 42 36
Width: 500
VWidth: -10897
Flags: W
LayerCount: 2
Fore
SplineSet
380.159 290.151 m 1
 329.56 254.117 l 1
 249.169 363.134 l 1
 168.804 253.922 l 1
 118.488 290.254 l 1
 197.955 400.526 l 1
 68.9617 443.2 l 1
 88.1091 502.193 l 1
 217.454 460.743 l 1
 218.452 596.917 l 1
 280.115 597.017 l 1
 281.063 461.192 l 1
 410.441 502.197 l 1
 429.968 443.456 l 1
 300.468 400.797 l 1
 380.159 290.151 l 1
EndSplineSet
Validated: 1
EndChar

StartChar: plus
Encoding: 43 43 37
Width: 500
VWidth: -10878
Flags: W
LayerCount: 2
Fore
SplineSet
219 403.7 m 1
 281 403.7 l 1
 281 249.7 l 1
 435 249.7 l 1
 435 187.7 l 1
 281 187.7 l 1
 281 19.7002 l 1
 219 19.7002 l 1
 219 187.7 l 1
 65 187.7 l 1
 65 249.7 l 1
 219 249.7 l 1
 219 403.7 l 1
EndSplineSet
Validated: 1
EndChar

StartChar: comma
Encoding: 44 44 38
Width: 500
VWidth: -10964
Flags: W
HStem: -129.676 199.196
VStem: 207.201 123.68
LayerCount: 2
Fore
SplineSet
245.706 69.5205 m 5
 330.881 49.0019 l 1
 260.796 -129.676 l 1
 207.201 -118.083 l 1
 245.706 69.5205 l 5
EndSplineSet
EndChar

StartChar: hyphen
Encoding: 45 45 39
Width: 500
VWidth: -11027
Flags: HW
LayerCount: 2
Fore
SplineSet
76.875 255.7 m 1
 423 255.7 l 1
 423 193.7 l 1
 76.875 193.7 l 1
 76.875 255.7 l 1
EndSplineSet
Validated: 1
EndChar

StartChar: period
Encoding: 46 46 40
Width: 500
VWidth: -10987
Flags: W
HStem: -6.32617 128.652<190.128 287.219>
VStem: 174.348 128.652<9.45434 106.546>
LayerCount: 2
Fore
SplineSet
238.674 122.326 m 4
 273.92 122.326 303 93.2461 303 58 c 4
 303 22.7539 273.92 -6.32617 238.674 -6.32617 c 4
 203.428 -6.32617 174.348 22.7539 174.348 58 c 4
 174.348 93.2461 203.428 122.326 238.674 122.326 c 4
EndSplineSet
Validated: 1
EndChar

StartChar: slash
Encoding: 47 47 41
Width: 500
VWidth: -10774
Flags: W
LayerCount: 2
Fore
SplineSet
342.329 575.431 m 1
 403.351 555.091 l 1
 157.671 -37.4313 l 1
 96.6491 -17.0906 l 1
 342.329 575.431 l 1
EndSplineSet
Validated: 1
EndChar

StartChar: zero
Encoding: 48 48 42
Width: 540
VWidth: 0
Flags: HW
LayerCount: 2
Fore
SplineSet
0 214.934 m 0
 0 326.808 93.9414 428 225.998 428 c 0
 357.941 428 454.095 326.928 451.998 214.746 c 1
 448.89 80.1602 357.38 -1 225.998 -1 c 0
 94.6855 -1 0 81.9717 0 214.934 c 0
383 214.938 m 0
 383 296.704 313.079 366 225.998 366 c 0
 138.917 366 69 296.704 69 214.938 c 0
 69 121.945 138.379 62 225.998 62 c 0
 313.316 62 383 126.577 383 214.938 c 0
186.133 215 m 0
 186.133 232.146 200.526 253 225.998 253 c 0
 251.469 253 265.864 232.144 265.864 215 c 0
 265.864 198.19 251.939 176 225.998 176 c 0
 200.057 176 186.133 198.189 186.133 215 c 0
EndSplineSet
EndChar

StartChar: one
Encoding: 49 49 43
Width: 520
VWidth: 0
Flags: HW
LayerCount: 2
Fore
SplineSet
93 298.441 m 1
 236.385 423 l 1
 300.253 423 l 1
 300.253 0 l 1
 234.253 0 l 1
 234.253 337.052 l 1
 138.796 251.98 l 1
 93 298.441 l 1
EndSplineSet
EndChar

StartChar: two
Encoding: 50 50 44
Width: 540
VWidth: 0
Flags: HW
LayerCount: 2
Fore
SplineSet
53 292.546 m 1
 54.0771 371.692 118.337 428 216.859 428 c 0
 312.868 428 382 381.783 382 291.48 c 0
 382 177.467 178.593 103.925 136.353 63.8574 c 1
 321.027 63 l 1
 331.271 63 348.19 74.1396 348.19 74.1396 c 0
 356.177 79.8389 l 1
 393.209 29.9883 l 1
 387.36 24.2139 l 1
 385.301 22.1807 362.961 0 327 0 c 0
 42 0 l 1
 42 10 l 0
 42 159.804 319 193.25 319 293.438 c 0
 319 335.834 288.23 370.669 217.084 369.787 c 1
 162.692 368.901 123.145 344.206 120 292.285 c 1
 120 271.979 138.067 242.23 163.091 231.525 c 0
 172.786 228.02 l 1
 152.185 171.927 l 1
 142.221 175.809 l 0
 90.7939 195.841 53 233.456 53 292.546 c 1
EndSplineSet
EndChar

StartChar: three
Encoding: 51 51 45
Width: 540
VWidth: 0
Flags: HW
LayerCount: 2
Fore
SplineSet
94.5371 358 m 1
 94.5371 425 l 1
 375.152 425 l 1
 397.38 374.806 l 1
 278.053 262.645 l 1
 289.946 260.818 298.348 258.965 307.985 255.496 c 1
 333.943 246.527 360.8 232.191 382.219 207.523 c 0
 403.886 182.57 416.537 148.547 416.537 107.323 c 0
 416.537 21.8506 353.698 -39.6143 275.309 -51.8604 c 0
 185.646 -64.0293 96.4668 -28.251 48.6533 59.9521 c 0
 44 68.5371 l 1
 103.913 97.0996 l 1
 108.433 88.709 l 0
 144.722 21.3291 205.314 2.95801 260.581 10.791 c 0
 312.69 18.6807 349.537 52.0234 349.537 106.283 c 0
 349.537 135.175 342.191 152.664 330.775 166.061 c 0
 319.511 179.279 302.292 188.193 282.286 194.591 c 0
 239.424 207.271 195.546 205.455 195.546 205.455 c 0
 187.462 205.14 l 1
 160.585 255.207 l 1
 287.409 358 l 1
 94.5371 358 l 1
EndSplineSet
EndChar

StartChar: four
Encoding: 52 52 46
Width: 540
VWidth: 0
Flags: HW
LayerCount: 2
Fore
SplineSet
26 64.6045 m 1
 299.175 425 l 1
 367.627 425 l 1
 367.627 85 l 1
 431.627 85 l 1
 431.627 18 l 1
 367.627 18 l 1
 367.627 -111 l 1
 299.466 -111 l 1
 299.466 18 l 1
 50.5205 18 l 1
 26 64.6045 l 1
299.466 85 m 1
 299.466 320.505 l 1
 120.518 85 l 1
 299.466 85 l 1
EndSplineSet
EndChar

StartChar: five
Encoding: 53 53 47
Width: 540
VWidth: 0
Flags: HW
LayerCount: 2
Fore
SplineSet
65.2373 213.654 m 1
 105.883 424 l 1
 374.207 424 l 1
 374.207 357 l 1
 161.418 357 l 1
 141.293 265.571 l 1
 168.416 273.437 204.767 280 248.465 280 c 0
 366.304 278.969 431.169 203.164 432.207 91.9414 c 0
 432.207 -8.74609 359.852 -104 236.718 -104 c 0
 122.638 -104 55.5615 -33.5176 55.0186 -32.9512 c 2
 48 -25.6387 l 1
 96.4678 19.9775 l 1
 103.327 13.0215 l 1
 103.327 13.0215 152.316 -37 236.633 -37 c 0
 308.623 -36.1416 365.207 35.6562 365.207 91.792 c 0
 364.24 152.271 339.412 213.121 248.341 214 c 0
 170.666 214 114.904 184.172 114.904 184.172 c 1
 109.352 181.217 l 1
 65.2373 213.654 l 1
EndSplineSet
EndChar

StartChar: six
Encoding: 54 54 48
Width: 540
VWidth: 0
Flags: HW
LayerCount: 2
Fore
SplineSet
268.424 577.878 m 1
 277.717 582.746 l 1
 310.552 526.977 l 1
 301.931 522.317 l 1
 301.438 522.047 195.773 471.549 142.65 350.322 c 1
 168.612 370.081 208.82 381 251.795 381 c 0
 323.328 381 395.962 321.901 395.962 208.538 c 0
 395.962 77.957 312.775 1 219.466 1 c 0
 210.833 1 202.469 1.41992 194.377 2.24121 c 0
 72.123 16.5791 36.7021 152.116 51.0439 258.379 c 1
 80.6455 483.302 266.146 576.85 268.424 577.878 c 1
328.962 208.297 m 0
 328.962 294.723 284.99 314 251.795 314 c 0
 204.67 314 182.792 299.593 169.962 286.133 c 0
 159.086 272.199 156.775 259.304 156.775 259.304 c 0
 154.867 249.932 l 1
 117.657 256.696 l 1
 115.187 243.777 114.166 232.094 114.138 218.197 c 0
 113.992 146.109 145.594 68 219.466 68 c 0
 267.105 68 328.962 104.505 328.962 208.297 c 0
EndSplineSet
EndChar

StartChar: seven
Encoding: 55 55 49
Width: 540
VWidth: 0
Flags: HW
LayerCount: 2
Fore
SplineSet
53.374 412.113 m 1
 55.8838 413.754 71.7676 424 97.2393 424 c 2
 444.984 424 l 1
 175.117 -90.2686 l 1
 112.878 -63.0215 l 1
 343.412 361 l 1
 111.239 361 l 0
 109.586 361 101.309 356.053 101.292 356.04 c 0
 93.9648 350.468 l 1
 44 405.984 l 1
 53.374 412.113 l 1
EndSplineSet
EndChar

StartChar: eight
Encoding: 56 56 50
Width: 520
VWidth: 0
Flags: HW
LayerCount: 2
Fore
SplineSet
72.998 413.871 m 1
 74.0693 491.409 127.324 546 222.064 546 c 1
 304.024 544.986 361.063 504.146 359.998 416.646 c 1
 359.998 355.435 328.993 305.167 276.549 275.015 c 1
 307.134 257.895 365.504 215.927 367.994 139.082 c 1
 370.144 60.2588 301.872 -4 228.998 -4 c 0
 122.52 -4 58.9199 59.6816 60.001 140.023 c 1
 61.9922 189.012 92.5713 245.153 139.634 276.991 c 1
 115.41 294.812 72.998 337.158 72.998 413.871 c 1
292.998 424.213 m 1
 294.848 467.672 276.961 495.802 222.957 497.998 c 1
 172.19 497.074 140.903 474.146 139.998 418.918 c 1
 139.998 345.289 203.446 313.956 203.446 313.956 c 0
 204.462 313.452 l 1
 254.024 339.076 292.998 371.766 292.998 424.213 c 1
208.623 249.008 m 0
 207.177 249.712 l 1
 164.077 226.588 127.544 197.973 125.995 143.762 c 1
 125.112 97.8125 156.364 57 231.998 57 c 0
 257.945 57 303.779 99.1611 302.004 142.649 c 1
 300.249 202.344 209.468 248.597 208.623 249.008 c 0
EndSplineSet
EndChar

StartChar: nine
Encoding: 57 57 51
Width: 540
VWidth: 0
Flags: HW
LayerCount: 2
Fore
SplineSet
322.401 318.5 m 0
 305.202 346.336 279.607 358 237.262 358 c 0
 189.83 358 128 321.495 128 217.703 c 0
 128 131.402 172.871 112 206.312 112 c 0
 253.161 112 273.622 126.249 286.781 139.867 c 0
 298.014 153.979 301.314 167.244 301.314 167.244 c 1
 303.66 176.013 l 1
 339.145 169.382 l 1
 340.124 174.089 l 1
 348.924 243.207 339.753 290.417 322.401 318.5 c 0
61 217.462 m 0
 61 348.043 144.187 425 237.262 425 c 0
 301.252 425 349.757 400.041 378.575 353.623 c 0
 407.135 307.621 417.096 245.366 406.92 167.674 c 0
 377.302 -57.3438 190.804 -149.857 188.346 -150.953 c 2
 179.209 -155.683 l 1
 146.392 -99.957 l 1
 155.098 -95.293 l 1
 155.098 -95.293 259.531 -46.5547 313.323 73.4609 c 1
 290.375 56.6748 253.844 45 206.312 45 c 0
 134.7 45 61 104.01 61 217.462 c 0
EndSplineSet
EndChar

StartChar: colon
Encoding: 58 58 52
Width: 500
VWidth: -10873
Flags: W
LayerCount: 2
Fore
SplineSet
243.927 406.754 m 0
 284.725 406.754 318.239 373.239 318.239 332.441 c 0
 318.239 291.643 284.724 258.129 243.927 258.129 c 0
 203.129 258.129 169.614 291.644 169.614 332.441 c 0
 169.614 373.24 203.13 406.754 243.927 406.754 c 0
243.927 161.754 m 0
 284.725 161.754 318.239 128.239 318.239 87.4414 c 0
 318.239 46.6437 284.724 13.1289 243.927 13.1289 c 0
 203.129 13.1289 169.614 46.6439 169.614 87.4414 c 0
 169.614 128.24 203.13 161.754 243.927 161.754 c 0
EndSplineSet
Validated: 1
EndChar

StartChar: semicolon
Encoding: 59 59 53
Width: 500
VWidth: -10828
Flags: W
LayerCount: 2
Fore
SplineSet
243.928 406.753 m 0
 284.726 406.753 318.24 373.238 318.24 332.44 c 0
 318.24 291.642 284.725 258.128 243.928 258.128 c 0
 203.13 258.128 169.615 291.643 169.615 332.44 c 0
 169.615 373.239 203.131 406.753 243.928 406.753 c 0
206.364 116.324 m 1
 301.196 93.6105 l 1
 230.862 -85.1552 l 1
 177.508 -73.4434 l 1
 206.364 116.324 l 1
EndSplineSet
Validated: 1
EndChar

StartChar: less
Encoding: 60 60 54
Width: 500
VWidth: -10871
Flags: W
LayerCount: 2
Fore
SplineSet
375.601 416.54 m 1
 406.522 362.427 l 1
 160.43 219.975 l 1
 406.522 77.5223 l 1
 375.601 23.4098 l 1
 77.5312 195.832 l 1
 77.5312 244.118 l 1
 375.601 416.54 l 1
EndSplineSet
Validated: 1
EndChar

StartChar: equal
Encoding: 61 61 55
Width: 500
VWidth: -10949
Flags: W
LayerCount: 2
Fore
SplineSet
64.7607 343.42 m 1
 434.761 343.42 l 1
 434.761 281.42 l 1
 64.7607 281.42 l 1
 64.7607 343.42 l 1
64.7607 175.42 m 1
 434.761 175.42 l 1
 434.761 113.42 l 1
 64.7607 113.42 l 1
 64.7607 175.42 l 1
EndSplineSet
Validated: 1
EndChar

StartChar: greater
Encoding: 62 62 56
Width: 500
VWidth: -10871
Flags: HW
LayerCount: 2
Fore
SplineSet
108.453 416.54 m 1
 77.5312 362.428 l 1
 323.623 219.975 l 1
 77.5312 77.5225 l 1
 108.453 23.4102 l 1
 406.522 195.832 l 1
 406.522 244.118 l 1
 108.453 416.54 l 1
EndSplineSet
EndChar

StartChar: question
Encoding: 63 63 57
Width: 500
VWidth: -10801
Flags: W
LayerCount: 2
Fore
SplineSet
251.234 554.387 m 2
 258.614 554.293 265.894 553.705 273.028 552.643 c 0
 347.209 541.602 405.308 478.736 391.789 390.086 c 1
 377.668 309.254 250.623 247.206 252.348 203.533 c 0
 252.759 193.138 l 1
 190.176 193.138 l 1
 190.358 203.317 l 0
 191.988 294.528 309.866 333.129 331.038 401.857 c 1
 331.645 405.564 331.95 408.492 332.118 411.829 c 0
 334.258 454.19 305.137 489.832 250.989 492.386 c 1
 223.8 491.877 187.245 480.577 182.252 446.26 c 0
 181.083 438.226 l 1
 120.021 434.41 l 1
 120.361 445.384 l 0
 122.667 519.962 184.691 549.893 250.428 554.365 c 0
 1089.96 611.58 250.831 554.392 250.831 554.392 c 1
 1097.25 543.646 251.234 554.387 251.234 554.387 c 2
233.606 134.638 m 0
 274.405 134.638 307.919 101.122 307.919 60.3252 c 0
 307.919 19.5274 274.404 -13.9873 233.606 -13.9873 c 0
 192.808 -13.9873 159.294 19.5279 159.294 60.3252 c 0
 159.294 101.123 192.809 134.638 233.606 134.638 c 0
EndSplineSet
Validated: 33
EndChar

StartChar: at
Encoding: 64 64 58
Width: 500
VWidth: -10862
Flags: HW
LayerCount: 2
Fore
SplineSet
254.217 421.861 m 0
 321.175 426.03 405.229 406.886 438.236 327.341 c 0
 442.074 318.093 445.48 307.288 448.383 295.306 c 0
 468.631 211.713 467.46 53.1202 361.332 27.6584 c 0
 342.859 23.2292 326.719 34.6589 317.565 42.9029 c 1
 285.755 9.13368 241.36 -2.70152 203.096 12.3242 c 0
 149.863 33.2185 120.967 99.725 146.036 178.238 c 0
 169.662 252.203 215.806 284.555 256.937 290.529 c 0
 284.563 294.542 317.239 284.865 346.688 273.003 c 1
 346.688 132.383 l 1
 293.318 138.259 l 1
 293.319 231.258 l 1
 256.175 245.261 222.782 208.689 205.294 158.891 c 1
 186.668 100.582 206.108 73.7559 223.861 66.7876 c 0
 247.154 57.6336 276.889 76.4148 291.825 124.612 c 1
 344.601 114.61 l 1
 345.399 104.575 351.99 87.927 360.161 89.3686 c 1
 409.13 109.855 405.51 240.205 388.932 297.557 c 0
 376.08 342.01 311.731 369.995 258.197 366.086 c 0
 183.089 360.838 141.217 314.011 119.478 253.204 c 0
 96.2127 188.124 87.6563 104.76 102.741 32.7031 c 1
 44.6562 10.7607 l 1
 23.6563 95.7604 31.3612 191.537 60.8342 273.938 c 0
 88.7969 352.118 154.758 414.903 254.217 421.861 c 0
EndSplineSet
EndChar

StartChar: bracketleft
Encoding: 91 91 59
Width: 500
VWidth: -10748
Flags: W
LayerCount: 2
Fore
SplineSet
184 -68 m 1
 184 596 l 1
 330 596 l 1
 330 534 l 1
 246 534 l 1
 246 -6 l 1
 330 -6 l 1
 330 -68 l 1
 184 -68 l 1
EndSplineSet
Validated: 1
EndChar

StartChar: backslash
Encoding: 92 92 60
Width: 500
VWidth: -10774
Flags: HW
LayerCount: 2
Fore
SplineSet
146.329 545.569 m 1
 79.5 517.117 l 5
 309.82 -38.3604 l 5
 376.649 -9.90938 l 1
 146.329 545.569 l 1
EndSplineSet
EndChar

StartChar: bracketright
Encoding: 93 93 61
Width: 500
VWidth: -10748
Flags: HW
LayerCount: 2
Fore
SplineSet
330 -68 m 1
 330 596 l 1
 184 596 l 1
 184 534 l 1
 268 534 l 1
 268 -6 l 1
 184 -6 l 1
 184 -68 l 1
 330 -68 l 1
EndSplineSet
EndChar

StartChar: asciicircum
Encoding: 94 94 62
Width: 500
VWidth: -10956
Flags: W
LayerCount: 2
Fore
SplineSet
257.299 601.838 m 1
 406.34 423.432 l 1
 355.313 384.069 l 1
 259.113 504.811 l 1
 164.71 382.873 l 1
 114.954 422.384 l 1
 257.299 601.838 l 1
EndSplineSet
Validated: 1
EndChar

StartChar: underscore
Encoding: 95 95 63
Width: 500
VWidth: -11027
Flags: W
LayerCount: 2
Fore
SplineSet
34.4375 10 m 1
 465.688 10 l 1
 465.688 -52 l 1
 34.4375 -52 l 1
 34.4375 10 l 1
EndSplineSet
Validated: 1
EndChar

StartChar: grave
Encoding: 96 96 64
Width: 500
VWidth: -12597
Flags: W
LayerCount: 2
Fore
SplineSet
168.778 654.5 m 1
 257.612 654.5 l 1
 292.101 529.627 l 1
 231.866 529.04 l 1
 168.778 654.5 l 1
EndSplineSet
Validated: 1
EndChar

StartChar: a
Encoding: 97 97 65
Width: 540
VWidth: -12668
Flags: W
HStem: -6 71<166.323 333.304> 0 21G<415.199 489.513> 360 68<170.262 330.899>
VStem: 24 69<135.76 285.165> 395 73<122.603 296.918 371.976 424>
LayerCount: 2
Fore
SplineSet
24 211 m 0xb8
 24 330.642 121.122 428 250.34 428 c 0
 307.307 428 360.521 405.856 395 371.976 c 1
 395 424 l 1
 468 424 l 1
 468 91.6758 l 0
 468 44.416 483.107 13.4922 483.107 13.4922 c 0
 489.513 0 l 1
 419.402 0 l 1x78
 415.199 4.54102 l 1
 415.199 4.54102 403.441 19.3555 397.254 50.8115 c 1
 359.85 15.5439 309.543 -6 249.533 -6 c 0
 121.123 -6 24 91.3584 24 211 c 0xb8
398.463 211.096 m 0
 400 299.178 330.842 360 253.059 360 c 0
 163.834 360 93 292.4 93 211.096 c 0
 93 129.756 160.903 65 249.533 65 c 0xb8
 330.927 65 398.463 114.914 398.463 211.096 c 0
EndSplineSet
EndChar

StartChar: b
Encoding: 98 98 66
Width: 540
VWidth: -12592
Flags: HW
LayerCount: 2
Fore
SplineSet
87 1 m 1
 87 587 l 1
 156 587 l 1
 156 404.267 l 1
 183.32 423.976 222.446 435 275.77 435 c 1
 395.497 432.948 469 336.67 469 212.043 c 0
 469 116.718 432.239 -9 290.893 -9 c 0
 221.165 -9 179.135 6.37109 156 19.3672 c 1
 156 1 l 1
 87 1 l 1
400 217 m 0
 400 297.445 371.162 367.598 276 375.4 c 1
 233.065 375.176 177.709 351.125 156 316.4 c 1
 156 63.417 l 1
 190.274 88.5879 l 1
 198.195 79.2188 209.673 57 290.893 57 c 0
 366.74 57 400 144.397 400 217 c 0
EndSplineSet
EndChar

StartChar: c
Encoding: 99 99 67
Width: 540
VWidth: -12663
Flags: HW
LayerCount: 2
Fore
SplineSet
47 210.394 m 1
 47 346.104 134.078 439 251.524 439 c 0
 370.247 439 410.045 402.84 411.853 401.139 c 0
 417.327 395.987 l 1
 387.765 338.27 l 1
 378.417 344.56 l 0
 378.302 344.638 337.34 372 251.524 372 c 0
 181.568 372 116 320.67 116 210.653 c 1
 116.972 148.617 148.576 69.5762 250.536 67 c 1
 333.115 67 397.365 92.1719 397.365 92.1719 c 0
 405.948 95.5215 l 1
 434.452 37.0879 l 1
 427.345 33.7793 l 1
 421.158 30.8994 357.613 1 250.456 1 c 1
 111.904 -1.02734 48.0283 101.234 47 210.394 c 1
EndSplineSet
EndChar

StartChar: d
Encoding: 100 100 68
Width: 540
VWidth: -12592
Flags: W
HStem: 0 60<177.99 320.312> 367 64<174.088 322.803> 566 20G<377 446>
VStem: 43 66<130.814 300.161> 377 69<0 41.4766 386.608 586> 386 60<128.205 299.434>
LayerCount: 2
Fore
SplineSet
377 386.608 m 1xf8
 377 586 l 1
 446 586 l 1
 446 576 l 0
 446 397.177 445.001 187.471 446 9.7168 c 0
 446.055 0 l 1
 377 0 l 1
 377 41.4766 l 1
 346.612 9.28223 299.981 -6 248.506 -6 c 0
 126.903 -6 43 94.5811 43 217.76 c 0
 43 341.411 127.592 431 248.506 431 c 0
 299.833 431 346.986 417.767 377 386.608 c 1xf8
386 213.97 m 0xf4
 386 305.227 324.885 367 248.506 367 c 0
 171.428 367 109 308.678 109 217.725 c 0
 109 126.286 172.257 60 248.506 60 c 0
 324.805 60 386 122.659 386 213.97 c 0xf4
EndSplineSet
EndChar

StartChar: e
Encoding: 101 101 69
Width: 540
VWidth: -12668
Flags: W
HStem: -4 67<185.143 388.969> 189 69<124.096 387.044> 365 64<182.954 339.402>
LayerCount: 2
Fore
SplineSet
117.458 189 m 1
 122.994 125.867 169.751 67.1416 270.534 63 c 1
 362.432 63 407.401 94.8027 407.555 94.9102 c 0
 416.436 101.201 l 1
 451.295 41.9414 l 1
 445.039 36.8154 l 1
 442.089 34.3965 393.829 -4 266.721 -4 c 1
 140.452 -1.99219 54.2373 76.1523 48.0137 200.094 c 0
 48 200.361 l 1
 48.002 200.628 l 0
 49.0244 322.781 110.102 429 268.206 429 c 1
 376.666 424.941 454.981 373.107 456.002 198.654 c 0
 456.059 189 l 1
 117.458 189 l 1
387.044 258 m 1
 378.938 319.146 343.25 361.427 263.156 365 c 1
 192.186 365 140.271 325.11 124.096 258 c 1
 387.044 258 l 1
EndSplineSet
EndChar

StartChar: f
Encoding: 102 102 70
Width: 520
VWidth: -12587
Flags: W
HStem: 0 61<167.5 216.5 285.5 333.5> 358 66<167.5 216.5 287.675 372.5> 529.585 64.415<325.64 429>
VStem: 216.5 69<61 358 424 484.024>
LayerCount: 2
Fore
SplineSet
218.424 424 m 1
 227.339 500.114 269.547 561.734 313.154 583.007 c 0
 340.168 595.926 387.191 594 419 594 c 0
 429 594 l 1
 429 528.1 l 1
 417.696 529.585 l 0
 417.696 529.585 371.265 535.201 342.911 521.025 c 1
 319.811 509.873 294.847 474.29 287.675 424 c 1
 372.5 424 l 1
 372.5 358 l 1
 285.5 358 l 1
 285.5 61 l 1
 333.5 61 l 1
 333.5 0 l 1
 167.5 0 l 1
 167.5 61 l 1
 216.5 61 l 1
 216.5 358 l 1
 167.5 358 l 1
 167.5 424 l 1
 218.424 424 l 1
EndSplineSet
EndChar

StartChar: g
Encoding: 103 103 71
Width: 540
VWidth: -12587
Flags: HW
LayerCount: 2
Fore
SplineSet
470.083 467.8 m 0
 480.083 467.8 l 1
 480.083 398.8 l 1
 470.083 398.8 l 0
 423.996 398.8 392.285 366.323 379.539 352.077 c 1
 400.303 320.934 411.083 284.936 411.083 245.229 c 0
 411.083 148.654 336.405 66.9434 227.986 66.9434 c 0
 202.276 66.9434 178.886 70.9287 158.923 77.5176 c 1
 156.888 66 l 1
 296.456 66 l 0
 362.761 66 419.879 39.2842 422.084 -37.9092 c 1
 420.986 -144.319 316.214 -174.994 206.604 -176.001 c 1
 149.909 -174.938 84.3066 -146.892 56.1055 -89.4043 c 0
 51 -78.998 l 1
 116.551 -58.0771 l 1
 120.635 -64.8174 l 0
 138.782 -94.7598 166.253 -109.146 207.011 -111.003 c 1
 294.842 -111.994 351.456 -86.4834 351.456 -38 c 0
 351.456 -10.8633 313.848 0 262.782 0 c 0
 111.379 0 l 1
 81.3086 34.7129 l 1
 99.2686 116.692 l 1
 68.8848 150.915 52.083 196.391 52.083 244.571 c 0
 52.083 342.305 125.328 428 227.986 428 c 0
 266.45 428 302.905 416.466 331.342 398.277 c 1
 354.344 419.668 398.397 467.8 470.083 467.8 c 0
340.231 236 m 0
 340.231 307.927 286.429 359 227.986 359 c 0
 170.016 359 122.083 307.928 122.083 236 c 0
 122.083 164.073 170.016 113 227.986 113 c 0
 286.429 113 340.231 164.072 340.231 236 c 0
EndSplineSet
EndChar

StartChar: h
Encoding: 104 104 72
Width: 520
VWidth: -12597
Flags: W
HStem: -1 22G<81 150 334 404> 371 69<192.407 305.888>
VStem: 81 69<0 323.791 402.998 584> 334 70<-1 343.732>
LayerCount: 2
Fore
SplineSet
81 0 m 1
 81 584 l 1
 150 584 l 1
 150 402.998 l 1
 173.284 424.393 200.867 440 238 440 c 0
 337.323 440 404 367.936 404 292.681 c 0
 404 -1 l 1
 334 -1 l 1
 334 290.337 l 0
 334 329.042 303.595 371 238 371 c 0
 214.406 371 192.741 353.526 175.32 328.731 c 0
 160.539 307.693 151.701 285.622 150 281.143 c 1
 150 0 l 1
 81 0 l 1
EndSplineSet
EndChar

StartChar: i
Encoding: 105 105 73
Width: 520
VWidth: -12597
Flags: W
HStem: 0 59.7217<144.75 226 297 371.75> 362.1 64<139.167 226> 455.719 148.625<195.004 299.914>
VStem: 173.146 148.625<477.576 582.486> 226 71<60.0381 362.1>
LayerCount: 2
Fore
SplineSet
173.146 530.031 m 0xf0
 173.146 570.829 206.662 604.344 247.459 604.344 c 0
 288.257 604.344 321.771 570.828 321.771 530.031 c 0
 321.771 489.233 288.256 455.719 247.459 455.719 c 0
 206.661 455.719 173.146 489.233 173.146 530.031 c 0xf0
139.167 362.1 m 1
 139.167 426.1 l 1
 297 426.1 l 1
 297 60.0381 l 1
 371.75 60.1963 l 1
 371.75 0 l 1
 144.75 0 l 1
 144.75 59.7217 l 1
 226 59.5645 l 1
 226 362.1 l 1xe8
 139.167 362.1 l 1
EndSplineSet
EndChar

StartChar: j
Encoding: 106 106 74
Width: 520
VWidth: -12520
Flags: HW
LayerCount: 2
Fore
SplineSet
200.094 532.062 m 0
 200.094 572.86 233.608 606.375 274.406 606.375 c 0
 315.203 606.375 348.719 572.86 348.719 532.062 c 0
 348.719 491.264 315.203 457.75 274.406 457.75 c 0
 233.608 457.75 200.094 491.265 200.094 532.062 c 0
124.5 356.529 m 1
 124.5 424.529 l 1
 331 424.529 l 1
 331 6.31055 l 0
 331 -118.738 199.507 -153.221 100.705 -159.975 c 0
 90 -160.732 l 1
 90 -90.5 l 1
 99.4883 -90.0127 l 0
 178.295 -86.1445 256.668 -66.6719 256.668 7.62695 c 0
 256.668 356.529 l 1
 124.5 356.529 l 1
EndSplineSet
EndChar

StartChar: k
Encoding: 107 107 75
Width: 520
VWidth: -12587
Flags: HW
LayerCount: 2
Fore
SplineSet
63 0 m 1
 63 587 l 1
 134 587 l 1
 134 276.86 l 1
 290.752 440.183 l 1
 340.137 394.214 l 1
 209.579 265.293 l 1
 251.706 229.127 277.189 184.361 299.787 144.664 c 1
 326.932 96.498 350.534 59.5781 379.362 46.1846 c 0
 388.391 41.9902 l 1
 357.62 -18.3174 l 1
 348.667 -14.0127 l 0
 292.767 12.8633 265.861 68.877 239.229 118.195 c 1
 215.916 160.161 192.913 199.861 161.004 227.345 c 1
 134 198.09 l 1
 134 0 l 1
 63 0 l 1
EndSplineSet
EndChar

StartChar: l
Encoding: 108 108 76
Width: 520
VWidth: -12592
Flags: W
HStem: -4 67<248.151 332.5> 518 69<98 163>
VStem: 98 133<518 587> 163 68<82.1875 518>
LayerCount: 2
Fore
SplineSet
98 518 m 1xe0
 98 587 l 1
 231 587 l 1xe0
 231 117.904 l 0
 231 81.7148 272.145 63 322.5 63 c 0
 332.5 63 l 1
 332.5 -4 l 1
 322.5 -4 l 0
 245.761 -4 163 29.3545 163 115.425 c 0
 163 518 l 1xd0
 98 518 l 1xe0
EndSplineSet
EndChar

StartChar: m
Encoding: 109 109 77
Width: 560
VWidth: -12668
Flags: HW
LayerCount: 2
Fore
SplineSet
119 411.713 m 1
 136.007 423.828 157.789 431 187.4 431 c 0
 229.209 431 260.007 404.385 273.933 380.742 c 1
 289.684 407.153 323.939 432 375 432 c 0
 471.774 432 498 354.55 498 286.726 c 0
 498 0 l 1
 429 0 l 1
 429 300 l 2
 429 346.349 412.503 369.801 374.166 369.801 c 0
 343 369.801 309 341.745 309 300 c 0
 309 0 l 1
 239 0 l 1
 239 300 l 0
 239 335.043 219.52 372.217 178.383 370.727 c 1
 147.792 369.349 119 319.64 119 300 c 0
 119 0 l 1
 50 0 l 1
 50 416 l 1
 119 416 l 1
 119 411.713 l 1
EndSplineSet
EndChar

StartChar: n
Encoding: 110 110 78
Width: 540
VWidth: -12668
Flags: W
HStem: 0 21G<81 150 354 424> 376.7 56.2998<182.311 318.621> 403 20G<81 150> 403 20G<81 150>
VStem: 81 69<0 344.793 405.827 423> 354 70<0 339.182>
LayerCount: 2
Fore
SplineSet
150 405.827 m 1xac
 176.171 425.34 209.366 433 249.848 433 c 0
 349.497 432.001 422.938 384.485 424 284.893 c 1
 424 0 l 1
 354 0 l 1
 354 275.7 l 5
 352.979 329.101 322.836 375.396 248.814 376.7 c 1xcc
 199.203 374.489 169.347 353.136 150 312.015 c 1
 150 0 l 1
 81 0 l 1
 81 423 l 1
 150 423 l 1
 150 405.827 l 1xac
EndSplineSet
EndChar

StartChar: o
Encoding: 111 111 79
Width: 540
VWidth: -12653
Flags: W
HStem: -6 62<189.243 346.757> 363 67<190.731 345.269>
VStem: 51 69<125.8 289.851> 416 69<125.8 289.851>
LayerCount: 2
Fore
SplineSet
51 207.22 m 0
 51 330.928 140.486 430 268 430 c 0
 395.514 430 485 330.928 485 207.22 c 0
 485 83.085 394.886 -6 268 -6 c 0
 141.114 -6 51 83.085 51 207.22 c 0
416 207.153 m 0
 416 298.971 349.991 363 268 363 c 0
 186.009 363 120 298.971 120 207.153 c 0
 120 115.603 185.558 56 268 56 c 0
 350.442 56 416 115.603 416 207.153 c 0
EndSplineSet
EndChar

StartChar: p
Encoding: 112 112 80
Width: 540
VWidth: -12602
Flags: W
HStem: -136 21G<42 111> -4 68<170.804 315.43> 371 69<168.545 316.864> 410 20G<42 111>
VStem: 42 69<-136 44.6201 123.151 312.426 390.458 430> 381 67<131.74 301.57>
LayerCount: 2
Fore
SplineSet
111 390.458 m 1xdc
 143.976 424.765 188.157 440 242.715 440 c 0xec
 363.976 440 448 341.348 448 218 c 0
 448 94.6523 363.976 -4 242.715 -4 c 0
 187.956 -4 143.063 11.5215 111 44.6201 c 1
 111 -136 l 1
 42 -136 l 1
 42 430 l 1
 111 430 l 1
 111 390.458 l 1xdc
381 217.97 m 0
 381 309.227 319.138 371 242.715 371 c 0
 166.291 371 105 309.227 105 217.97 c 0
 105 126.659 166.382 64 242.715 64 c 0
 319.047 64 381 126.659 381 217.97 c 0
EndSplineSet
EndChar

StartChar: q
Encoding: 113 113 81
Width: 540
VWidth: -12602
Flags: HW
LayerCount: 2
Fore
SplineSet
44 216.979 m 0
 44 340.251 126.916 440 248.596 440 c 0
 302.156 440 345.735 424.048 375 393.044 c 1
 375 428 l 1
 444 428 l 1
 444 -137 l 1
 375 -137 l 1
 375 41.7783 l 1
 343.912 8.64453 301.986 -7 248.596 -7 c 0
 126.855 -7 44 93.748 44 216.979 c 0
387 217 m 0
 387 308.151 324.949 370 248.596 370 c 0
 171.746 370 110 308.238 110 217 c 0
 110 125.762 171.746 64 248.596 64 c 0
 324.949 64 387 125.849 387 217 c 0
EndSplineSet
EndChar

StartChar: r
Encoding: 114 114 82
Width: 540
VWidth: -12668
Flags: W
HStem: 0 55<54 93 162 202.675> 366 62<254.845 360.182>
VStem: 93 69<55 278.045 358.726 424>
LayerCount: 2
Fore
SplineSet
162 358.726 m 1
 199.754 395.751 251.083 428 318 428 c 0
 385.091 428 421.418 379.765 421.955 379.06 c 2
 428.232 370.818 l 1
 370.543 330.014 l 1
 364.789 338.293 l 1
 364.789 338.293 344.718 366 318 366 c 0
 256.064 366 193.761 293.196 162 252.422 c 1
 162 55 l 1
 202.675 55 l 1
 202.675 0 l 1
 54 0 l 1
 54 55 l 1
 93 55 l 1
 93 424 l 1
 162 424 l 1
 162 358.726 l 1
EndSplineSet
EndChar

StartChar: s
Encoding: 115 115 83
Width: 540
VWidth: -2060
Flags: HW
LayerCount: 2
Fore
SplineSet
68.7275 36.1016 m 0
 63.6094 44.9902 l 1
 63.6094 46.0791 l 1
 87.3447 110.571 l 1
 97.957 104.151 l 0
 97.957 104.151 167.127 62.6113 241.819 62.6113 c 0
 299.195 62.6113 346.609 77.7061 346.609 122.737 c 0
 346.609 163.368 321.161 175.454 247.085 187.058 c 0
 162.387 200.083 77.5 205.964 77.5 305.267 c 0
 77.5 384.072 147.484 430.688 254.111 430.688 c 0
 308.29 430.688 336.8 425.425 387.323 406.104 c 0
 395.104 403.128 l 1
 379.674 332.056 l 1
 367.865 338.14 l 0
 367.865 338.14 308.211 368.545 252.882 368.545 c 0
 195.222 368.545 151.609 336.104 151.609 305.446 c 0
 151.609 276.899 188.337 265.121 260.403 253.625 c 0
 345.35 238.185 416.609 204.677 416.609 119.869 c 0
 416.609 39.084 329.801 -4.31152 236.902 -4.31152 c 0
 143.825 -4.31152 70.21 35.3076 68.7275 36.1016 c 0
EndSplineSet
EndChar

StartChar: t
Encoding: 116 116 84
Width: 520
VWidth: -12633
Flags: W
HStem: -5 61.334<198.417 314.189> 359 65.8662<65 110 179.026 341>
VStem: 110 69.666<75.8327 359 424.866 487>
LayerCount: 2
Fore
SplineSet
110 424.866 m 1
 110 487 l 1
 179 487 l 1
 179 424.866 l 1
 341 424.866 l 1
 341 359 l 1
 179.026 359 l 1
 179.666 127.623 l 0
 179.666 86.2695 209.414 56.334 252.666 56.334 c 0
 276.338 56.334 315.78 78.5361 346.07 95.7002 c 0
 355.054 100.791 l 1
 385.55 42.7041 l 1
 376.559 38.0996 l 0
 334.906 16.7656 282.328 -5 252 -5 c 0
 169.07 -5 110 47.6475 110 126.761 c 0
 110 359 l 1
 65 359 l 1
 65 424.866 l 1
 110 424.866 l 1
EndSplineSet
EndChar

StartChar: u
Encoding: 117 117 85
Width: 540
VWidth: -12663
Flags: W
HStem: 0 70<149.489 266.936> 405 20G<57 127 317 386> 405 20G<57 127 317 386>
VStem: 57 70<92.7066 425> 317 69.0049<117.687 425>
LayerCount: 2
Fore
SplineSet
317 159.107 m 1xd8
 317 425 l 1
 386 425 l 1
 386 415 l 0
 386 317.165 386.98 237.812 386.005 141.644 c 1
 390.054 105.695 410.143 44.6289 422.841 12.9473 c 0
 428.029 0 l 1
 351.5 0 l 1
 348.861 5.94043 l 0
 348.827 6.01758 338.883 28.6973 332.12 52.4629 c 1
 308.502 23.0654 259.463 0 203.746 0 c 1
 116.771 1.03125 57 62.7764 57 156.629 c 0
 57 425 l 1
 127 425 l 1
 127 159.069 l 1
 127.959 107.317 148.452 70 208.456 70 c 1
 255.839 70.8018 306.08 116.105 317 159.107 c 1xd8
EndSplineSet
EndChar

StartChar: v
Encoding: 118 118 86
Width: 540
VWidth: -12674
Flags: W
HStem: 0 21G<241.653 318.897> 405 20G<40 122.567 421.945 504.485> 405 20G<40 122.567 421.945 504.485>
LayerCount: 2
Fore
SplineSet
281.223 81.1592 m 1xc0
 430.636 425 l 1
 504.485 425 l 1
 309.732 0 l 1
 251.611 0 l 1
 40 425 l 1
 112.769 425 l 1
 281.223 81.1592 l 1xc0
EndSplineSet
EndChar

StartChar: w
Encoding: 119 119 87
Width: 540
VWidth: -12674
Flags: W
HStem: 0 21G<110.785 187.878 356.267 433.294> 405 20G<14 89.0824 455.961 530.079> 405 20G<14 89.0824 455.961 530.079>
LayerCount: 2
Fore
SplineSet
388.018 111.45 m 1xc0
 460.59 425 l 1
 530.079 425 l 1
 428.515 0 l 1
 364.582 0 l 1
 272.543 221.381 l 1
 179.47 0 l 1
 115.564 0 l 1
 14 425 l 1
 84.5127 425 l 1
 156.16 111.424 l 1
 272.649 376.99 l 1
 388.018 111.45 l 1xc0
EndSplineSet
EndChar

StartChar: x
Encoding: 120 120 88
Width: 540
VWidth: -12674
Flags: W
HStem: 0 21G<18 124.239 411.399 518.091> 405 20G<21.167 123.519 397.65 506.15> 405 20G<21.167 123.519 397.65 506.15>
LayerCount: 2
Fore
SplineSet
21.167 425 m 1xc0
 105.028 425 l 1
 261.009 256.286 l 1
 416.027 425 l 1
 506.15 425 l 1
 315.539 219.649 l 1
 518.091 0 l 1
 429.904 0 l 1
 266.443 176.662 l 1
 106.085 0 l 1
 18 0 l 1
 211.977 213.015 l 1
 21.167 425 l 1xc0
EndSplineSet
EndChar

StartChar: y
Encoding: 121 121 89
Width: 540
VWidth: -12607
Flags: W
HStem: 403 20G<37 118.834 385.154 467.229> 403 20G<37 118.834 385.154 467.229>
LayerCount: 2
Fore
SplineSet
251.036 115.298 m 1x80
 394.478 423 l 1
 467.229 423 l 1
 202.12 -142 l 1
 122.777 -142 l 1
 210.24 40.585 l 1
 37 423 l 1
 109.644 423 l 1
 251.036 115.298 l 1x80
EndSplineSet
EndChar

StartChar: z
Encoding: 122 122 90
Width: 540
VWidth: -12668
Flags: HW
LayerCount: 2
Fore
SplineSet
64.5527 409.321 m 1
 70.4619 413.817 l 2
 90.7607 430.009 133.638 424.867 409.026 425 c 0
 414.617 425.003 l 1
 445.313 377.754 l 1
 150.433 65.0713 l 1
 190.313 65.3184 231.875 66 274.495 66 c 0
 347.559 66 381.478 72.1104 405.934 86.6025 c 0
 415.415 92.2217 l 1
 445.978 26.9307 l 1
 438.034 22.3418 l 0
 389.704 -5.58203 339.522 0 260.531 0 c 0
 71.5635 0 l 1
 45 46.9697 l 1
 341.541 360.106 l 1
 193.496 360.229 111.919 359.204 102.232 354.396 c 1
 92.0469 346.78 l 1
 64.5527 409.321 l 1
EndSplineSet
EndChar

StartChar: braceleft
Encoding: 123 123 91
Width: 500
VWidth: -10748
Flags: W
LayerCount: 2
Fore
SplineSet
350 597.1 m 1
 350 535.1 l 1
 340 535.1 l 0
 298.283 535.1 305.734 538.208 292.944 512.628 c 0
 280.252 487.243 280 461.387 280 419.1 c 0
 280 377.275 280.597 333.934 264.944 302.628 c 0
 264.219 301.176 l 1
 263.071 300.029 l 0
 253.446 290.404 251.605 279.205 241.231 265.1 c 1
 252.864 249.283 253.052 240.19 263.071 230.171 c 0
 264.219 229.024 l 1
 264.944 227.572 l 0
 280.604 196.252 280 152.924 280 111.1 c 0
 280 68.8128 280.252 42.9567 292.944 17.5717 c 0
 306.054 -8.64726 298.487 -4.9004 340 -4.9004 c 0
 350 -4.9004 l 1
 350 -66.9004 l 1
 340 -66.9004 l 0
 280.08 -66.9004 248.363 -35.9857 233.056 -5.37253 c 0
 217.396 25.947 218 69.2763 218 111.1 c 0
 218 153.387 217.748 179.243 205.056 204.628 c 0
 191.946 230.847 199.514 227.1 158 227.1 c 0
 148 227.1 l 1
 148 289.1 l 1
 158 289.1 l 0
 195.47 289.1 190.298 296.057 205.056 325.572 c 0
 217.748 350.957 218 376.813 218 419.1 c 0
 218 460.924 217.402 504.267 233.056 535.572 c 0
 248.363 566.185 280.08 597.1 340 597.1 c 0
 350 597.1 l 1
EndSplineSet
Validated: 1
EndChar

StartChar: bar
Encoding: 124 124 92
Width: 500
VWidth: -10793
Flags: W
LayerCount: 2
Fore
SplineSet
219 555 m 1
 281 555 l 1
 281 -11 l 1
 219 -11 l 1
 219 555 l 1
EndSplineSet
Validated: 1
EndChar

StartChar: braceright
Encoding: 125 125 93
Width: 500
VWidth: -10748
Flags: W
LayerCount: 2
Fore
SplineSet
150 -66.9004 m 1
 150 -5.26826 l 1
 159.625 -4.90742 l 0
 200.585 -3.37192 194.277 -3.439 207.243 17.9452 c 1
 219.97 43.913 220 69.0225 220 111.1 c 0
 220 152.924 219.403 196.266 235.056 227.572 c 0
 235.229 227.919 l 1
 235.429 228.252 l 0
 239.562 235.127 247.648 251.499 258.525 265.021 c 1
 246.351 279.654 240.068 293.164 235.164 302.417 c 0
 218.626 333.622 220 377.434 220 419.1 c 0
 220 461.204 219.252 487.751 207.35 512.035 c 1
 195.184 529.937 200.223 531.005 158.999 535.15 c 0
 150 536.055 l 1
 150 597.1 l 1
 160 597.1 l 0
 219.92 597.1 251.638 566.185 266.944 535.572 c 0
 282.604 504.252 282 460.923 282 419.1 c 0
 282 376.813 282.252 350.957 294.944 325.572 c 0
 308.053 299.353 300.487 303.1 342 303.1 c 0
 352 303.1 l 1
 352 241.1 l 1
 342 241.1 l 0
 304.531 241.1 309.702 234.143 294.944 204.628 c 0
 282.252 179.243 282 153.387 282 111.1 c 0
 282 69.2751 282.597 25.9338 266.944 -5.37253 c 0
 251.638 -35.9858 219.92 -66.9004 160 -66.9004 c 0
 150 -66.9004 l 1
EndSplineSet
Validated: 33
EndChar

StartChar: asciitilde
Encoding: 126 126 94
Width: 500
VWidth: -11008
Flags: W
LayerCount: 2
Fore
SplineSet
69 249.707 m 2
 130.226 279.759 198.136 276.03 264.001 249.112 c 0
 311.725 229.615 341.834 215.28 402.812 249.042 c 0
 411.602 253.908 l 1
 441.333 199.616 l 1
 432.625 194.794 l 0
 352.689 150.54 289.48 172.531 241.227 191.619 c 0
 193.023 210.69 160.727 226.374 96.7127 194.172 c 0
 87.7576 189.667 l 1
 59.9568 245.268 l 1
 69 249.707 l 2
EndSplineSet
Validated: 33
EndChar

StartChar: acute
Encoding: 180 180 95
Width: 520
VWidth: 0
Flags: HW
LayerCount: 2
Fore
SplineSet
251.564 539.732 m 1
 303.844 648.551 l 1
 223.439 648.55 l 1
 190.564 539.943 l 1
 251.564 539.732 l 1
EndSplineSet
EndChar

StartChar: section
Encoding: 167 167 96
Width: 500
VWidth: -10818
Flags: HW
LayerCount: 2
Fore
SplineSet
239.269 468.5 m 0
 285.311 468.062 317.769 452.944 347.769 437.444 c 1
 335.769 367.943 l 1
 326.068 380.655 285.685 409.35 239.127 409.812 c 2
 238.688 409.812 l 0
 196.704 409.812 174.884 389.91 173.874 359.262 c 0
 171.769 295.444 261.769 282.944 289.66 274.395 c 0
 350.609 255.715 401.533 201.87 370.758 121.534 c 1
 373.563 108.528 374.688 97.8982 374.688 84.25 c 0
 374.688 11.4849 312.71 -22.5 243.269 -22.5 c 0
 198.241 -21.8037 139.77 -1.5 99.7686 18.5 c 1
 108.769 78 l 1
 141.438 55.6465 201.199 29.6572 242.769 30.5 c 0
 282.166 30.5 312.688 47.756 312.688 84.1997 c 1
 312.269 124.739 285.69 153.436 231.733 162.771 c 0
 231.501 162.812 l 1
 231.271 162.863 l 0
 218.262 165.75 204.816 169.632 191.755 174.7 c 0
 137.459 195.774 87.9236 240.027 117.4 315.764 c 1
 113.51 329.529 111.875 343.608 111.875 359.438 c 0
 111.875 437.674 171.097 468.5 239.269 468.5 c 0
161.769 277.943 m 1
 161.269 255.444 196.602 228.276 217.269 219.943 c 0
 224.133 217.177 316.77 200.444 327.769 174.943 c 1
 329.27 197.444 312.12 207.636 288.526 218.739 c 0
 254.525 234.739 190.269 244.944 161.769 277.943 c 1
EndSplineSet
EndChar

StartChar: degree
Encoding: 176 176 97
Width: 500
VWidth: -10935
Flags: W
LayerCount: 2
Fore
SplineSet
8.57718 540.503 m 0
 79.3918 540.503 138.657 481.237 138.657 410.423 c 0
 138.657 339.608 79.3916 280.343 8.57715 280.343 c 0
 -62.2373 280.343 -121.503 339.608 -121.503 410.423 c 0
 -121.503 481.237 -62.2374 540.503 8.57718 540.503 c 0
8.57707 475.468 m 0
 -28.5378 475.468 -56.4678 447.538 -56.4678 410.423 c 0
 -56.4678 373.308 -28.5376 345.378 8.57715 345.378 c 0
 45.692 345.378 73.6221 373.309 73.6221 410.423 c 0
 73.6221 447.538 45.6918 475.468 8.57707 475.468 c 0
EndSplineSet
Validated: 1
EndChar

StartChar: guillemotleft
Encoding: 171 171 98
Width: 500
VWidth: -10917
Flags: HW
LayerCount: 2
Fore
SplineSet
182.556 363.475 m 5
 237.989 335.113 l 1
 175.854 212.655 l 1
 241.537 84.9116 l 1
 186.101 56.5482 l 1
 105.875 214.277 l 5
 182.556 363.475 l 5
291.056 363.475 m 1
 346.489 335.113 l 1
 284.354 212.655 l 1
 350.037 84.9116 l 1
 294.601 56.5482 l 1
 214.112 212.965 l 1
 214.112 212.965 291.564 364.542 291.056 363.475 c 1
EndSplineSet
EndChar

StartChar: guillemotright
Encoding: 187 187 99
Width: 500
VWidth: -10871
Flags: HW
LayerCount: 2
Fore
SplineSet
108.453 416.54 m 1
 77.5312 362.428 l 1
 323.623 219.975 l 1
 77.5312 77.5225 l 1
 108.453 23.4102 l 1
 406.522 195.832 l 1
 406.522 244.118 l 1
 108.453 416.54 l 1
EndSplineSet
EndChar

StartChar: dieresis
Encoding: 168 168 100
Width: 500
VWidth: -10987
Flags: W
HStem: 426.04 128.652<96.925 194.016 291.953 386.988>
VStem: 81.1445 128.652<441.821 538.912> 275.145 128.652<440.821 537.912>
LayerCount: 2
Fore
SplineSet
339.471 553.692 m 4
 374.717 553.692 403.797 524.612 403.797 489.366 c 4
 403.797 454.12 374.717 425.04 339.471 425.04 c 4
 304.225 425.04 275.145 454.12 275.145 489.366 c 4
 275.145 524.612 304.225 553.692 339.471 553.692 c 4
145.471 554.692 m 4
 180.717 554.692 209.797 525.612 209.797 490.366 c 4
 209.797 455.12 180.717 426.04 145.471 426.04 c 4
 110.225 426.04 81.1445 455.12 81.1445 490.366 c 4
 81.1445 525.612 110.225 554.692 145.471 554.692 c 4
EndSplineSet
Validated: 1
EndChar

StartChar: logicalnot
Encoding: 172 172 101
Width: 500
VWidth: -11027
InSpiro: 1
Flags: W
LayerCount: 2
Fore
SplineSet
71.875 255.7 m 1
 427 255.7 l 1
 427 69.417 l 1
 359.5 69.417 l 1
 359.5 193.7 l 1
 71.875 193.7 l 1
 71.875 255.7 l 1
EndSplineSet
Validated: 1
EndChar

StartChar: igrave
Encoding: 236 236 123
Width: 500
VWidth: 0
Flags: HW
LayerCount: 2
Fore
SplineSet
139.167 426.1 m 1
 277 426.1 l 1
 277 42.834 l 1
 351.75 43 l 1
 351.75 0 l 1
 144.75 0 l 1
 144.75 43 l 1
 226 42.834 l 1
 226 382.1 l 1xe8
 139.167 382.1 l 1
 139.167 426.1 l 1
176.959 642.744 m 5
 241.959 642.744 l 5
 270.959 537.744 l 5
 229.959 537.344 l 5
 176.959 642.744 l 5
EndSplineSet
Validated: 1
EndChar

StartChar: igrave
Encoding: 236 236 124
Width: 520
VWidth: 0
Flags: HW
LayerCount: 2
Fore
SplineSet
139.167 362.1 m 1
 139.167 426.1 l 1
 297 426.1 l 1
 297 60.0381 l 1
 371.75 60.1963 l 1
 371.75 0 l 1
 144.75 0 l 1
 144.75 59.7217 l 1
 226 59.5645 l 1
 226 362.1 l 1
 139.167 362.1 l 1
231.325 518.64 m 1
 168.237 644.101 l 1
 257.071 644.101 l 1
 291.561 519.229 l 1
 231.325 518.64 l 1
EndSplineSet
EndChar

StartChar: iacute
Encoding: 237 237 125
Width: 520
VWidth: 0
Flags: HW
LayerCount: 2
Fore
SplineSet
139.167 362.1 m 1
 139.167 426.1 l 1
 297 426.1 l 1
 297 60.0381 l 1
 371.75 60.1963 l 1
 371.75 0 l 1
 144.75 0 l 1
 144.75 59.7217 l 1
 226 59.5645 l 1
 226 362.1 l 1
 139.167 362.1 l 1
283.459 511.926 m 5
 335.738 620.744 l 5
 255.334 620.743 l 5
 222.459 512.137 l 5
 283.459 511.926 l 5
EndSplineSet
EndChar

StartChar: icircumflex
Encoding: 238 238 126
Width: 520
VWidth: 0
Flags: HW
LayerCount: 2
Fore
SplineSet
143.213 362.1 m 1
 143.213 426.1 l 1
 301.046 426.1 l 1
 301.046 60.0381 l 1
 375.796 60.1963 l 1
 375.796 0 l 1
 148.796 0 l 1
 148.796 59.7217 l 1
 230.046 59.5645 l 1
 230.046 362.1 l 1
 143.213 362.1 l 1
105.959 547.729 m 1
 248.304 727.183 l 1
 397.345 548.776 l 1
 346.318 509.413 l 1
 250.117 630.154 l 1
 155.714 508.217 l 1
 105.959 547.729 l 1
EndSplineSet
EndChar

StartChar: idieresis
Encoding: 239 239 127
Width: 540
VWidth: 0
Flags: HW
LayerCount: 2
Fore
SplineSet
348.459 583.1 m 0
 383.703 583.1 412.783 557.02 412.783 521.774 c 0
 412.783 486.528 383.703 461.448 348.459 461.448 c 0
 313.213 461.448 284.133 486.528 284.133 521.774 c 0
 284.133 557.02 313.213 583.1 348.459 583.1 c 0
154.459 584.1 m 0
 189.703 584.1 218.783 558.02 218.783 522.774 c 0
 218.783 487.528 189.703 462.448 154.459 462.448 c 0
 119.213 462.448 90.1309 487.528 90.1309 522.774 c 0
 90.1309 558.02 119.213 584.1 154.459 584.1 c 0
139.167 362.1 m 1
 139.167 423.1 l 1
 317 423.1 l 1
 317 60.0381 l 1
 391.75 60.1963 l 1
 391.75 0 l 1
 144.75 0 l 1
 144.75 59.7217 l 1
 241.777 59.5645 l 1
 241.777 362.1 l 1
 139.167 362.1 l 1
EndSplineSet
EndChar

StartChar: ae
Encoding: 230 230 129
Width: 1064
VWidth: 0
Flags: HW
LayerCount: 2
Fore
SplineSet
412.167 386.46 m 1
 434.421 414.512 467.306 439.96 514.331 439.357 c 0
 640.229 437.727 642.497 276.994 643.387 197.275 c 0
 643.494 187.689 l 1
 633.477 187.604 l 0
 573.829 187.1 511.056 187.517 447.165 187.42 c 1
 451.083 133.867 463.678 61.9043 519.398 57.7764 c 0
 545.962 55.7295 575.625 81.9463 587.696 115.063 c 0
 590.704 123.314 l 1
 655.625 107.784 l 1
 652.338 98.043 l 0
 632.775 40.0645 595.971 -1.42578 524.947 -4.55664 c 0
 482.333 -6.36328 439.361 17.0078 414.797 49.3105 c 1
 390.303 12.168 338.379 -3.32617 289.845 -6.52832 c 0
 289.456 -6.55566 l 1
 288.563 -6.5498 l 1
 212.929 -5.53613 169.478 54.3721 170.386 127.157 c 0
 171.706 233.176 285.194 245.737 375.737 251.865 c 1
 374.716 303.41 369.648 368.173 313.653 373.182 c 0
 264.3 377.846 249.747 340.469 249.372 339.517 c 1
 245.527 329.428 l 1
 183.756 358.985 l 1
 188.165 367.203 l 1
 189.38 369.467 226.378 438.366 314.763 438.366 c 0
 357.776 438.366 391.614 416.493 412.167 386.46 c 1
575.981 254.211 m 1
 574.28 311.634 564.747 376.943 513.396 380.72 c 0
 466.443 383.999 441.631 310.139 444.136 254.211 c 1
 575.981 254.211 l 1
289.167 51.6133 m 0
 362.421 51.376 378.328 102.121 377.709 185.513 c 1
 318.732 182.251 239.613 169.409 237.55 120.637 c 0
 235.893 81.8086 248.205 51.7686 289.167 51.6133 c 0
EndSplineSet
EndChar

StartChar: uni00B2
Encoding: 178 178 148
Width: 500
VWidth: 0
Flags: W
LayerCount: 2
Fore
SplineSet
238.833 597.1 m 0
 284.059 597.1 347.833 568.362 347.833 492.699 c 0
 347.833 408.485 237.724 395.722 215.38 366.978 c 1
 335.878 366.032 l 1
 344.662 303.1 l 1
 121.803 303.1 l 1
 122.881 314.077 l 0
 138.049 468.575 284.833 453.459 284.833 495.699 c 0
 284.833 533.726 253.688 536.1 238.833 536.1 c 0
 234.083 536.1 194.41 538.263 191.821 485.609 c 0
 191.353 476.1 l 1
 124.702 476.1 l 1
 124.834 486.23 l 0
 125.924 570.209 191.746 597.1 238.833 597.1 c 0
EndSplineSet
Validated: 33
EndChar

StartChar: cedilla
Encoding: 184 184 149
Width: 500
VWidth: -10964
Flags: W
LayerCount: 2
Fore
SplineSet
232.51 68.9997 m 1
 327.945 72.7362 l 1
 327.665 62.0635 l 0
 325.632 -15.2508 298.775 -79.1465 262.385 -124.372 c 0
 258.514 -129.182 l 1
 204.174 -117.429 l 1
 209.426 -106.092 l 0
 234.384 -52.2245 244.102 2.05967 234.459 57.7479 c 0
 232.51 68.9997 l 1
EndSplineSet
Validated: 33
EndChar

StartChar: paragraph
Encoding: 182 182 150
Width: 500
VWidth: -12564
Flags: HW
LayerCount: 2
Fore
SplineSet
425.542 539.101 m 1
 425.543 -0.000976562 l 1
 355.543 -0.000976562 l 1
 355.542 539.101 l 1
 425.542 539.101 l 1
322.043 539.101 m 1
 277.793 539.208 266.314 539.964 218.119 539.964 c 1
 139.457 538.067 69 474.632 69 386 c 0
 69 305.45 130.353 242 216 242 c 0
 245.542 242 l 1
 245.542 304 l 1
 216 304 l 0
 158.601 304 132.271 344 132.271 386.151 c 0
 132.271 429 156.271 482.01 218.137 482.01 c 0
 257.271 481 l 1
 257.271 0 l 1
 322.042 0 l 1
 322.043 539.101 l 1
EndSplineSet
EndChar

StartChar: plusminus
Encoding: 177 177 151
Width: 500
VWidth: -10878
Flags: W
LayerCount: 2
Fore
SplineSet
218.917 430.201 m 1
 280.917 430.201 l 1
 280.917 276.201 l 1
 434.917 276.201 l 1
 434.917 214.201 l 1
 280.917 214.201 l 1
 280.917 57.0996 l 1
 434.875 57.0996 l 1
 434.875 -4.90039 l 1
 65 -4.90039 l 1
 65 57.0996 l 1
 218.917 57.0996 l 1
 218.917 214.201 l 1
 64.917 214.201 l 1
 64.917 276.201 l 1
 218.917 276.201 l 1
 218.917 430.201 l 1
EndSplineSet
Validated: 1
EndChar

StartChar: uni00B5
Encoding: 181 181 152
Width: 500
VWidth: -12663
Flags: W
LayerCount: 2
Fore
SplineSet
287 435 m 1
 356 435 l 1
 356 425 l 0
 356 322.451 356.98 239.273 356.005 138.47 c 1
 360.054 100.789 380.143 36.7796 392.841 3.57137 c 0
 398.03 -10 l 1
 321.5 -10 l 1
 318.861 -4.05913 l 0
 318.827 -3.98268 308.883 18.6972 302.12 42.4631 c 1
 278.502 13.0651 236.756 -10 189.935 -10 c 1
 155.682 -9.55514 125.102 1.93252 101.299 21.7037 c 1
 93.5261 -34.9971 83.511 -97.1892 72.2599 -137.677 c 0
 70.2251 -145 l 1
 -5.99115 -145 l 1
 -2.51804 -132.352 l 0
 21.4506 -45.0655 39.2684 52.6082 47 154.375 c 1
 47 435 l 1
 117 435 l 1
 117 154.088 l 1
 117.959 99.4196 138.452 60 193.894 60 c 1
 233.712 60.8472 276.08 108.703 287 154.128 c 1
 287 435 l 1
EndSplineSet
Validated: 33
EndChar

StartChar: uni00B9
Encoding: 185 185 153
Width: 500
VWidth: 0
Flags: HW
LayerCount: 2
Fore
SplineSet
237.764 597.101 m 1
 301 597.101 l 1
 301 373.866 l 1
 235 373.866 l 1
 235 519.476 l 1
 194.435 490.01 l 1
 151.892 535.022 l 1
 237.764 597.101 l 1
EndSplineSet
Validated: 1
EndChar

StartChar: uni00B3
Encoding: 179 179 154
Width: 500
VWidth: 0
Flags: HW
LayerCount: 2
Fore
SplineSet
263.04 447.029 m 1
 239.104 493.722 l 1
 274.623 529.1 l 1
 166.333 529.1 l 1
 166.333 596.1 l 1
 361.727 596.1 l 1
 380.883 545.766 l 1
 336.375 497.583 l 1
 360.761 487.852 405.666 460.238 405.666 393.831 c 0
 405.666 347.441 347.387 281.5 269.333 281.5 c 0
 199.522 281.498 151.09 340.502 132.923 379.805 c 0
 129.08 388.119 l 1
 192.1 424.262 l 1
 196.524 413.939 l 0
 211.25 379.581 231.764 350.499 270.833 350.5 c 0
 298.709 350.5 340.851 365.536 339.344 397.53 c 0
 337.696 432.523 311.786 446.797 269.118 447 c 0
 263.04 447.029 l 1
EndSplineSet
Validated: 33
EndChar

StartChar: multiply
Encoding: 215 215 155
Width: 520
VWidth: -10878
Flags: W
HStem: 64.0146 295.37
VStem: 106.457 315.37
LayerCount: 2
Fore
SplineSet
209.643 216.65 m 1
 106.457 318.414 l 1
 150.298 359.385 l 1
 259.192 250.491 l 1
 368.086 359.385 l 1
 411.929 318.325 l 1
 312.643 216.336 l 5
 421.827 105.076 l 1
 377.986 64.0146 l 1
 259.192 182.809 l 1
 150.298 73.9141 l 1
 106.457 114.886 l 1
 209.643 216.65 l 1
EndSplineSet
EndChar

StartChar: arrowdblleft
Encoding: 8656 8656 156
Width: 500
VWidth: -10949
Flags: HW
LayerCount: 2
Fore
SplineSet
170.09 32.2926 m 1
 -13.819 223.617 l 1
 169.58 417.413 l 1
 215.569 370.515 l 1
 163.102 316.18 l 1
 513 316.18 l 1
 513 254.18 l 1
 103.232 254.18 l 1
 72.3582 222.207 l 1
 106.237 188.18 l 1
 513 188.18 l 1
 513 126.18 l 1
 167.967 126.18 l 1
 215.72 78.2183 l 1
 170.09 32.2926 l 1
EndSplineSet
Validated: 1
EndChar

StartChar: arrowdblup
Encoding: 8657 8657 157
Width: 500
VWidth: -10949
Flags: HW
LayerCount: 2
Fore
SplineSet
58.9928 306.21 m 1
 250.317 490.119 l 1
 444.113 306.72 l 1
 397.215 260.731 l 1
 342.88 313.198 l 1
 342.88 -36.7002 l 1
 280.88 -36.7002 l 1
 280.88 373.067 l 1
 248.907 403.941 l 1
 214.88 370.063 l 1
 214.88 -36.7002 l 1
 152.88 -36.7002 l 1
 152.88 308.332 l 1
 104.918 260.58 l 1
 58.9928 306.21 l 1
EndSplineSet
Validated: 1
EndChar

StartChar: arrowdblright
Encoding: 8658 8658 158
Width: 500
VWidth: -10949
Flags: HW
LayerCount: 2
Fore
SplineSet
332.91 417.307 m 1
 516.819 225.983 l 1
 333.42 32.1863 l 1
 287.431 79.085 l 1
 339.898 133.42 l 1
 -10 133.42 l 1
 -10 195.42 l 1
 399.768 195.42 l 1
 430.641 227.393 l 1
 396.763 261.42 l 1
 -10 261.42 l 1
 -10 323.42 l 1
 335.033 323.42 l 1
 287.28 371.382 l 1
 332.91 417.307 l 1
EndSplineSet
Validated: 1
EndChar

StartChar: arrowdbldown
Encoding: 8659 8659 159
Width: 500
VWidth: -10949
Flags: HW
LayerCount: 2
Fore
SplineSet
444.007 143.39 m 1
 252.683 -40.5192 l 1
 58.8865 142.88 l 1
 105.785 188.869 l 1
 160.12 136.402 l 1
 160.12 486.3 l 1
 222.12 486.3 l 1
 222.12 76.532 l 1
 254.093 45.658 l 1
 288.12 79.5367 l 1
 288.12 486.3 l 1
 350.12 486.3 l 1
 350.12 141.267 l 1
 398.082 189.02 l 1
 444.007 143.39 l 1
EndSplineSet
Validated: 1
EndChar

StartChar: arrowleft
Encoding: 8592 8592 160
Width: 500
VWidth: -10871
Flags: HW
LayerCount: 2
Fore
SplineSet
170.09 417.307 m 1
 215.66 371.442 l 1
 102.396 255.7 l 1
 510 255.7 l 1
 510 193.7 l 1
 103.499 193.7 l 1
 215.615 79.1315 l 1
 169.58 32.1864 l 1
 -13.819 225.983 l 1
 170.09 417.307 l 1
EndSplineSet
EndChar

StartChar: arrowup
Encoding: 8593 8593 161
Width: 500
VWidth: -10871
Flags: HW
LayerCount: 2
Fore
SplineSet
55.5303 302.747 m 1
 101.395 257.178 l 1
 217.137 370.44 l 1
 217.137 -37.1631 l 1
 279.137 -37.1631 l 1
 279.137 369.338 l 1
 393.706 257.223 l 1
 440.65 303.257 l 1
 246.854 486.656 l 1
 55.5303 302.747 l 1
EndSplineSet
EndChar

StartChar: arrowright
Encoding: 8594 8594 162
Width: 500
VWidth: -10871
Flags: HW
LayerCount: 2
Fore
SplineSet
326.092 417.307 m 1
 280.521 371.442 l 1
 393.784 255.7 l 1
 -13.8193 255.7 l 1
 -13.8193 193.7 l 1
 392.682 193.7 l 1
 280.566 79.1318 l 1
 326.602 32.1865 l 1
 510 225.982 l 1
 326.092 417.307 l 1
EndSplineSet
EndChar

StartChar: arrowdown
Encoding: 8595 8595 163
Width: 500
VWidth: -10871
Flags: HW
LayerCount: 2
Fore
SplineSet
55.5303 146.746 m 1
 101.395 192.315 l 1
 217.137 79.0527 l 1
 217.137 486.656 l 1
 279.137 486.656 l 1
 279.137 80.1553 l 1
 393.706 192.271 l 1
 440.65 146.236 l 1
 246.854 -37.1631 l 1
 55.5303 146.746 l 1
EndSplineSet
EndChar

StartChar: arrowboth
Encoding: 8596 8596 164
Width: 500
VWidth: -10871
Flags: HW
LayerCount: 2
Fore
SplineSet
170.09 417.307 m 1
 215.66 371.442 l 1
 102.396 255.7 l 1
 397.604 255.7 l 1
 284.34 371.442 l 1
 329.91 417.307 l 1
 513.819 225.983 l 1
 330.42 32.1863 l 1
 284.385 79.1315 l 1
 396.501 193.7 l 1
 103.499 193.7 l 1
 215.615 79.1315 l 1
 169.58 32.1864 l 1
 -13.819 225.983 l 1
 170.09 417.307 l 1
EndSplineSet
Validated: 1
EndChar

StartChar: arrowupdn
Encoding: 8597 8597 165
Width: 500
VWidth: -10871
Flags: HW
LayerCount: 2
Fore
SplineSet
57.4928 144.89 m 1
 103.358 190.46 l 1
 219.1 77.1962 l 1
 219.1 372.404 l 1
 103.358 259.14 l 1
 57.4928 304.71 l 1
 248.817 488.619 l 1
 442.613 305.22 l 1
 395.668 259.185 l 1
 281.1 371.301 l 1
 281.1 78.299 l 1
 395.668 190.415 l 1
 442.613 144.38 l 1
 248.817 -39.0192 l 1
 57.4928 144.89 l 1
EndSplineSet
Validated: 1
EndChar

StartChar: uni2196
Encoding: 8598 8598 166
Width: 500
VWidth: -10871
Flags: HW
LayerCount: 2
Fore
SplineSet
329.62 417.226 m 1
 329.407 355.491 l 1
 160.986 355.643 l 1
 455.721 62.8247 l 1
 411.879 18.9846 l 1
 117.804 311.144 l 1
 117.893 146.124 l 1
 57.2221 145.458 l 1
 57.1345 417.279 l 1
 329.62 417.226 l 1
EndSplineSet
Validated: 1
EndChar

StartChar: uni2197
Encoding: 8599 8599 167
Width: 500
VWidth: -10871
Flags: HW
LayerCount: 2
Fore
SplineSet
167.084 416.062 m 1
 167.293 351.408 l 1
 329.224 349.655 l 1
 41.0049 61.4355 l 1
 84.8457 17.5957 l 1
 372.285 305.035 l 1
 374.021 144.745 l 1
 439.766 144.102 l 1
 432.414 410.818 l 1
 167.084 416.062 l 1
EndSplineSet
EndChar

StartChar: uni2198
Encoding: 8600 8600 168
Width: 500
VWidth: -10871
Flags: HW
LayerCount: 2
Fore
SplineSet
439.406 305.752 m 1
 374.752 305.544 l 1
 372.999 143.613 l 1
 84.7793 431.832 l 1
 40.9395 387.991 l 1
 328.379 100.552 l 1
 168.089 98.8174 l 1
 167.445 33.0703 l 1
 434.162 40.4219 l 1
 439.406 305.752 l 1
EndSplineSet
EndChar

StartChar: uni2199
Encoding: 8601 8601 169
Width: 500
VWidth: -10871
Flags: HW
LayerCount: 2
Fore
SplineSet
56.7754 305.752 m 1
 121.429 305.544 l 1
 123.182 143.613 l 1
 411.401 431.832 l 1
 455.241 387.991 l 1
 167.802 100.552 l 1
 328.092 98.8164 l 1
 328.735 33.0713 l 1
 62.0186 40.4219 l 1
 56.7754 305.752 l 1
EndSplineSet
EndChar

StartChar: lessequal
Encoding: 8804 8804 170
Width: 500
VWidth: -10871
Flags: HW
LayerCount: 2
Fore
SplineSet
107.569 197.453 m 5
 406.529 24.9844 l 5
 375.601 -29.1406 l 5
 73.3311 145.711 l 5
 107.569 197.453 l 5
375.601 458.114 m 5
 406.522 404.001 l 5
 160.43 261.549 l 5
 406.522 119.097 l 5
 375.601 64.9844 l 5
 77.5312 237.406 l 5
 77.5312 285.692 l 5
 375.601 458.114 l 5
EndSplineSet
EndChar

StartChar: greaterequal
Encoding: 8805 8805 171
Width: 500
VWidth: -10871
Flags: HW
LayerCount: 2
Fore
SplineSet
372.291 197.453 m 5
 73.3311 24.9844 l 5
 104.26 -29.1406 l 5
 406.529 145.711 l 5
 372.291 197.453 l 5
104.26 458.114 m 5
 73.3379 404.001 l 5
 319.431 261.549 l 5
 73.3379 119.097 l 5
 104.26 64.9844 l 5
 402.329 237.406 l 5
 402.329 285.692 l 5
 104.26 458.114 l 5
EndSplineSet
EndChar

StartChar: universal
Encoding: 8704 8704 172
Width: 500
VWidth: -12564
Flags: W
LayerCount: 2
Fore
SplineSet
207.955 -10 m 1
 7.80641 550 l 1
 80.8285 550 l 1
 114.828 463 l 1
 358.098 463 l 1
 391.098 550 l 1
 462.062 550 l 1
 267.444 -10 l 1
 207.955 -10 l 1
237.959 104.526 m 1
 339.968 400 l 1
 135.071 400 l 1
 237.959 104.526 l 1
EndSplineSet
Validated: 1
EndChar

StartChar: existential
Encoding: 8707 8707 173
Width: 500
VWidth: -12564
Flags: W
LayerCount: 2
Fore
SplineSet
100 0 m 1
 100 58 l 1
 333.501 58 l 1
 333.501 247 l 1
 99.501 247 l 1
 99.501 316 l 1
 333.501 316 l 1
 333.501 480 l 1
 100 480 l 1
 100 549 l 1
 402.501 549 l 1
 402.501 -10 l 1
 110 -10 l 0
 100 0 l 1
EndSplineSet
Validated: 37
EndChar

StartChar: OE
Encoding: 338 338 174
Width: 540
VWidth: -12564
Flags: HW
LayerCount: 2
Fore
SplineSet
309 272.25 m 3
 309 400.48 266.37 484.25 186 484.25 c 3
 105.665 484.25 72.5 406.146 72.5 280 c 0
 72.5 154.105 113.339 58.25 194 58.25 c 3
 274.715 58.25 309 144.227 309 272.25 c 3
306.985 495.383 m 1
 306.985 539.1 l 17
 540 538.992 l 1
 540 471 l 1
 371.484 471 l 1
 371.484 293 l 1
 540 293 l 1
 540 224 l 1
 371.484 224 l 1
 371.484 69 l 1
 540 69 l 1
 540 0 l 1
 304.835 0 l 1
 304.835 39.4316 l 1
 278.524 14.085 238.022 0 193.933 0 c 0
 64.2139 0 7.5 126.567 7.5 270.074 c 0
 7.5 412.824 55.167 544.168 184.798 544.168 c 0
 232.58 544.168 278.931 526.991 306.985 495.383 c 1
EndSplineSet
EndChar

StartChar: oe
Encoding: 339 339 175
Width: 540
VWidth: -12653
Flags: HW
LayerCount: 2
Fore
SplineSet
250.339 360.789 m 1
 266.401 404.813 305.58 430.438 355.083 430.438 c 0
 463.545 428.747 472.084 180.906 472.084 180.906 c 2
 298.301 180.674 l 1
 300.614 144.207 315.021 57.083 359.549 56.7803 c 0
 408.601 56.4003 459.084 82.9062 459.084 82.9062 c 1
 475.409 26.5586 l 1
 467.383 21.9463 l 0
 466.675 21.5391 420.059 -5.5 356.455 -5.5 c 0
 304.161 -5.5 273.462 32.1924 258.634 63.6816 c 1
 245.326 34.5742 214.479 -4.01465 150.019 -3.5625 c 0
 51.1416 -2.83301 22.3154 107.095 20.8154 211.411 c 0
 19.7031 288.597 43.8828 429.5 145.091 429.5 c 0
 202.154 429.5 227.709 402.506 250.339 360.789 c 1
410.336 244.75 m 1
 408.691 302.893 386.346 373.591 355.016 373.938 c 0
 330.934 373.636 313.519 345.51 304.366 314.577 c 1
 297.557 290.211 295.298 265.291 294.369 244.75 c 1
 410.336 244.75 l 1
218.86 201.926 m 0
 218.286 271.7 217.983 371.906 150.084 371.906 c 0
 105.084 371.906 87.3145 270.572 87.3145 201.5 c 0
 87.3145 140.359 96.6357 62.873 151.084 56.9062 c 0
 207.125 51.2764 219.371 139.028 218.86 201.926 c 0
EndSplineSet
EndChar

StartChar: AE
Encoding: 198 198 176
Width: 540
VWidth: -12564
Flags: HW
LayerCount: 2
Fore
SplineSet
235.378 413.623 m 1
 235.378 273.5 l 1
 182.498 273.5 l 1
 235.378 413.623 l 1
169.974 217 m 1
 235.378 217 l 1
 235.378 -0.0917969 l 1
 495.946 -0 l 1
 495.946 60.0996 l 1
 297.164 60.0996 l 1
 297.164 217.1 l 1
 495.946 217.1 l 1
 495.946 273.1 l 1
 297.164 273.1 l 1
 297.164 461.1 l 1
 495.946 461.1 l 1
 495.946 519.097 l 1
 207.556 519.002 l 1
 21.9736 0 l 1
 92.9473 0 l 1
 169.974 217 l 1
EndSplineSet
EndChar

StartChar: endash
Encoding: 8211 8211 178
Width: 500
VWidth: -11027
Flags: HW
LayerCount: 2
Fore
SplineSet
47.875 255.7 m 1
 452 255.7 l 1
 452 193.7 l 1
 47.875 193.7 l 1
 47.875 255.7 l 1
EndSplineSet
Validated: 1
EndChar

StartChar: emdash
Encoding: 8212 8212 179
Width: 500
VWidth: -11027
Flags: HW
LayerCount: 2
Fore
SplineSet
-10 255.7 m 1
 510 255.7 l 1
 510 193.7 l 1
 -10 193.7 l 1
 -10 255.7 l 1
EndSplineSet
Validated: 1
EndChar

StartChar: guilsinglleft
Encoding: 8249 8249 180
Width: 500
VWidth: -10917
Flags: HW
LayerCount: 2
Fore
SplineSet
219.556 363.475 m 1
 274.989 335.113 l 1
 212.854 212.655 l 1
 278.537 84.9116 l 1
 223.101 56.5482 l 1
 144.397 214.624 l 1
 219.556 363.475 l 1
EndSplineSet
EndChar

StartChar: guilsinglright
Encoding: 8250 8250 181
Width: 500
VWidth: -10917
Flags: HW
LayerCount: 2
Fore
SplineSet
203.378 363.475 m 1
 147.945 335.113 l 1
 210.081 212.655 l 1
 144.397 84.9111 l 1
 199.834 56.5479 l 1
 278.537 214.624 l 1
 203.378 363.475 l 1
EndSplineSet
EndChar

StartChar: infinity
Encoding: 8734 8734 182
Width: 500
VWidth: 0
Flags: W
LayerCount: 2
Fore
SplineSet
-10 220.35 m 0
 -10 304.096 56.7657 358.25 121.908 358.25 c 1
 184.384 359.396 228.06 337.664 256.003 284.307 c 1
 271.456 313.203 307.241 359.287 382.088 358.25 c 1
 459.338 358.25 510.06 300.858 508.999 220.219 c 0
 508.102 152.036 465.58 86.25 382.017 86.25 c 0
 333.227 86.25 292.558 106.25 256.53 154.412 c 1
 238.165 131.418 192.174 86.8828 122 86.8828 c 0
 40.4354 86.8828 -10 159.579 -10 220.35 c 0
53 220.35 m 0
 53 171.592 92.2017 147.25 122 147.25 c 0
 195.196 147.25 220.683 212.425 220.683 212.425 c 0
 222.485 216.986 l 1
 192.924 267.901 192.231 294.25 122 294.25 c 0
 80.5632 294.25 53 266.502 53 220.35 c 0
288.337 214.469 m 1
 308.911 174.953 329.19 148.131 382.256 146.614 c 1
 426.259 145.768 448 187.976 448 220.35 c 0
 448 260.522 421.927 296.85 379.75 296.85 c 0
 318.266 296.85 290.645 221.088 290.425 220.456 c 0
 288.337 214.469 l 1
EndSplineSet
Validated: 33
EndChar

StartChar: diamond
Encoding: 9830 9830 183
Width: 500
VWidth: -10949
Flags: HW
LayerCount: 2
Fore
SplineSet
2.92188 237.262 m 1
 250.412 484.752 l 1
 497.898 237.266 l 1
 250.408 -10.2246 l 1
 2.92188 237.262 l 1
EndSplineSet
Validated: 1
EndChar

StartChar: divide
Encoding: 247 247 184
Width: 540
VWidth: -11027
Flags: HW
LayerCount: 2
Fore
SplineSet
188.506 342.974 m 0
 188.506 379.079 221.115 408.74 262.365 408.74 c 0
 303.616 408.74 337.502 379.079 337.502 342.974 c 0
 337.502 306.867 303.616 277.207 262.365 277.207 c 0
 221.115 277.207 188.506 306.867 188.506 342.974 c 0
188.506 104.74 m 0
 188.506 140.846 221.115 170.507 262.365 170.507 c 0
 303.616 170.507 337.502 140.846 337.502 104.74 c 0
 337.502 68.6338 303.616 38.9736 262.365 38.9736 c 0
 221.115 38.9736 188.506 68.6338 188.506 104.74 c 0
66.875 193.7 m 1
 66.875 255.7 l 1
 473 255.7 l 1
 473 193.7 l 1
 66.875 193.7 l 1
EndSplineSet
EndChar

StartChar: uni2662
Encoding: 9826 9826 185
Width: 500
VWidth: -10949
Flags: HW
LayerCount: 2
Fore
SplineSet
250.408 63.315 m 1
 424.359 237.266 l 1
 250.935 410.69 l 1
 76.9839 236.739 l 1
 250.408 63.315 l 1
-11.2203 237.262 m 1
 250.412 498.894 l 1
 512.04 237.266 l 1
 505.612 230.838 l 1
 504.969 230.195 l 1
 250.408 -24.3668 l 1
 -11.2203 237.262 l 1
EndSplineSet
Validated: 1
EndChar
